<svg xmlns="http://www.w3.org/2000/svg" height="1024" preserveAspectRatio="none" style="display: block;" version="1.1" viewBox="0 0 2048 2048" width="1024">
<defs>
	<linearGradient gradientUnits="userSpaceOnUse" id="Gradient1" x1="1125.29" x2="1132.88" y1="1446.97" y2="1437.24">
		<stop class="stop0" offset="0" stop-color="rgb(70,64,53)" stop-opacity="1"></stop>
		<stop class="stop1" offset="1" stop-color="rgb(95,78,64)" stop-opacity="1"></stop>
	</linearGradient>
	<linearGradient gradientUnits="userSpaceOnUse" id="Gradient2" x1="781.814" x2="790.157" y1="1307.88" y2="1301.36">
		<stop class="stop0" offset="0" stop-color="rgb(64,56,49)" stop-opacity="1"></stop>
		<stop class="stop1" offset="1" stop-color="rgb(92,85,76)" stop-opacity="1"></stop>
	</linearGradient>
	<linearGradient gradientUnits="userSpaceOnUse" id="Gradient3" x1="1049.23" x2="1021.12" y1="409.594" y2="471.627">
		<stop class="stop0" offset="0" stop-color="rgb(227,158,201)" stop-opacity="1"></stop>
		<stop class="stop1" offset="1" stop-color="rgb(246,192,222)" stop-opacity="1"></stop>
	</linearGradient>
	<linearGradient gradientUnits="userSpaceOnUse" id="Gradient4" x1="1219.63" x2="1220.23" y1="1096.49" y2="1115.04">
		<stop class="stop0" offset="0" stop-color="rgb(68,54,42)" stop-opacity="1"></stop>
		<stop class="stop1" offset="1" stop-color="rgb(79,76,80)" stop-opacity="1"></stop>
	</linearGradient>
	<linearGradient gradientUnits="userSpaceOnUse" id="Gradient5" x1="1181.3" x2="1164.55" y1="660.53" y2="622.413">
		<stop class="stop0" offset="0" stop-color="rgb(82,63,71)" stop-opacity="1"></stop>
		<stop class="stop1" offset="1" stop-color="rgb(67,68,72)" stop-opacity="1"></stop>
	</linearGradient>
</defs>
<path d="M 0 0 L 2048 0 L 2048 2048 L 0 2048 L 0 0 z" fill="rgb(255,237,225)" transform="translate(0,0)"></path>
<path d="M 1063.83 334.45 C 1123.02 307.534 1180.28 274.509 1238.98 246.303 C 1270.6 231.114 1301.71 213.384 1333.87 199.144 C 1368.87 183.647 1407.21 154.023 1447.22 165.11 C 1456.42 167.797 1479.4 183.531 1488.68 189.457 L 1553.23 230.911 C 1565.81 239.035 1580.17 246.654 1591.95 255.76 C 1594.65 257.847 1596.79 260.828 1598.17 263.929 C 1604.88 278.963 1607.14 458.436 1608.33 492.747 L 1622 870.463 C 1655.66 904.199 1695.12 949.643 1726.14 986.823 C 1815.64 1094.57 1909.94 1211.83 1911.04 1359.26 C 1911.82 1463.02 1862.54 1563.59 1789.71 1635.68 C 1654.24 1769.78 1300.86 1892.38 1145.36 1735.88 C 1129.16 1719.89 1115.03 1701.92 1103.31 1682.41 C 1092.8 1664.72 1082.4 1639.81 1074.32 1620.34 C 1043.99 1547.17 1018.2 1489.96 950.888 1442.75 C 950.533 1482.84 951.109 1500.18 941.307 1539.79 C 916.442 1640.25 858.327 1734.9 781.503 1803.99 C 733.616 1847.05 654.484 1894.27 589.087 1889.72 C 575.546 1888.73 562.362 1884.91 550.379 1878.53 C 534.42 1870.17 514.036 1853.42 498.335 1842.63 C 480.767 1830.68 463.136 1818.82 445.445 1807.06 C 428.691 1795.91 397.733 1776.54 385.905 1762.16 C 358.351 1728.65 348.504 1669.97 352.738 1627.69 C 364.3 1512.24 426.963 1420.31 512.755 1347.31 C 507.724 1344.3 494.562 1339.27 488.754 1336.62 C 470.99 1328.5 452.293 1321.58 434.786 1312.98 C 351.301 1271.95 272.205 1215.78 214.704 1141.93 C 155.715 1066.16 134.289 971.192 137.313 876.331 C 139.248 826.653 148.398 777.52 164.474 730.475 C 186.211 667.005 220.591 604.9 256.012 547.975 C 282.549 505.328 311.244 460.501 342.083 420.915 C 370.922 383.984 402.439 349.224 436.378 316.917 C 606.245 157.599 844.001 86.6687 1019.46 281.035 C 1034.91 298.141 1048.24 317.715 1063.83 334.45 z" fill="rgb(89,75,77)" transform="translate(0,0)"></path>
<path d="M 512.755 1347.31 C 507.724 1344.3 494.562 1339.27 488.754 1336.62 C 470.99 1328.5 452.293 1321.58 434.786 1312.98 C 351.301 1271.95 272.205 1215.78 214.704 1141.93 C 155.715 1066.16 134.289 971.192 137.313 876.331 C 139.248 826.653 148.398 777.52 164.474 730.475 C 186.211 667.005 220.591 604.9 256.012 547.975 C 282.549 505.328 311.244 460.501 342.083 420.915 C 370.922 383.984 402.439 349.224 436.378 316.917 C 606.245 157.599 844.001 86.6687 1019.46 281.035 C 1034.91 298.141 1048.24 317.715 1063.83 334.45 C 1028.68 353.639 993.789 370.595 958.047 388.655 L 787.166 475.794 C 765.686 486.937 743.896 497.559 722.29 508.242 C 705.301 516.642 682.608 529.811 679.287 550.521 C 674.307 581.579 677.791 618.407 678.522 650.313 C 679.455 714.513 681.208 778.697 683.781 842.852 L 694.887 1272.23 C 621.99 1279.22 570.909 1306.07 512.755 1347.31 z" fill="rgb(216,205,193)" transform="translate(0,0)"></path>
<path d="M 948.977 808.526 C 961.151 800.754 986.38 789.218 1000.06 782.246 C 1032.56 765.265 1065.2 748.541 1097.97 732.074 L 1253.21 652.975 C 1287.58 635.21 1322.03 616.363 1356.7 599.351 L 1360.9 813.37 C 1362.11 856.393 1364.45 898.842 1364.64 941.98 C 1362.41 941.957 1360.19 941.958 1357.96 941.983 C 1269.24 943.03 1178.35 1002.39 1118.31 1064.42 C 1060.89 1123.74 1023.96 1209.63 1026.04 1292.58 C 1027.15 1337.05 1037.48 1390.32 1071.92 1421.17 C 1092.93 1439.99 1128.2 1461.14 1152.93 1478.2 C 1178.91 1493.3 1212.84 1523.71 1240.08 1534.86 C 1323.75 1569.12 1438.43 1487.99 1491.18 1429.16 C 1556.96 1355.79 1611.98 1263.63 1627.79 1166.5 C 1633.46 1131.67 1628.77 1072.18 1627.46 1036.6 L 1622 870.463 C 1655.66 904.199 1695.12 949.643 1726.14 986.823 C 1815.64 1094.57 1909.94 1211.83 1911.04 1359.26 C 1911.82 1463.02 1862.54 1563.59 1789.71 1635.68 C 1654.24 1769.78 1300.86 1892.38 1145.36 1735.88 C 1129.16 1719.89 1115.03 1701.92 1103.31 1682.41 C 1092.8 1664.72 1082.4 1639.81 1074.32 1620.34 C 1043.99 1547.17 1018.2 1489.96 950.888 1442.75 L 948.977 808.526 z" fill="rgb(231,182,138)" transform="translate(0,0)"></path>
<path d="M 1167.12 467.695 C 1185.62 479.122 1207.46 490.132 1226.8 500.6 C 1261.82 519.546 1288.88 535.627 1319.47 560.823 C 1332.31 554.233 1419.9 507.539 1426.92 506.495 L 1428.85 508.046 C 1428.99 510.048 1429.1 510.432 1427.67 512.019 C 1424.35 515.698 1340.88 558.493 1329.75 564.563 C 1339.16 572.475 1346.68 578.991 1355.43 587.786 L 1126.06 706.13 L 1000.49 769.707 C 987.418 776.346 945.708 796.584 936.929 803.758 C 938.278 864.083 937.033 929.692 937.347 990.613 C 936.909 1015.65 937.614 1040.71 937.222 1065.55 C 932.905 1071.41 907.074 1108.3 903.32 1108.84 C 902.113 1105.38 903.14 1106.21 900.848 1104.57 C 895.01 1108.47 895.765 1115.09 895.685 1121.52 C 884.67 1136.48 854.8 1175.97 841.027 1188.23 C 838.408 1073.99 836.604 959.74 835.617 845.478 C 834.991 789.912 832.895 733.712 833.945 678.218 C 834.053 668.419 835.322 661.028 838.551 651.934 C 849.76 620.357 865.762 616.63 893.902 601.717 C 930.932 582.349 968.309 563.651 1006.01 545.631 L 1075.93 511.734 C 1090.54 504.625 1107.14 496.021 1122.03 490.029 C 1134.25 483.732 1154.8 472.43 1167.12 467.695 z" fill="rgb(216,205,193)" transform="translate(0,0)"></path>
<path d="M 1167.12 467.695 C 1185.62 479.122 1207.46 490.132 1226.8 500.6 C 1261.82 519.546 1288.88 535.627 1319.47 560.823 C 1256.44 594.63 1190.53 626.61 1128.19 660.903 C 1128.63 631.883 1134.52 507.368 1122.03 490.029 C 1134.25 483.732 1154.8 472.43 1167.12 467.695 z" fill="rgb(231,182,138)" transform="translate(0,0)"></path>
<path d="M 1127.73 669.175 C 1133.23 665.518 1149.89 657.271 1156.58 653.762 C 1176.47 643.217 1196.47 632.862 1216.56 622.698 C 1254.62 603.501 1291.35 583.402 1329.75 564.563 C 1339.16 572.475 1346.68 578.991 1355.43 587.786 L 1126.06 706.13 C 1127.68 692.156 1128.38 683.17 1127.73 669.175 z" fill="rgb(231,182,138)" transform="translate(0,0)"></path>
<path d="M 1319.47 560.823 C 1332.31 554.233 1419.9 507.539 1426.92 506.495 L 1428.85 508.046 C 1428.99 510.048 1429.1 510.432 1427.67 512.019 C 1424.35 515.698 1340.88 558.493 1329.75 564.563 C 1291.35 583.402 1254.62 603.501 1216.56 622.698 C 1196.47 632.862 1176.47 643.217 1156.58 653.762 C 1149.89 657.271 1133.23 665.518 1127.73 669.175 L 973.132 749.475 C 957.358 757.771 939.243 768.886 922.947 776.388 C 920.712 777.417 919.693 776.542 918.248 775.557 L 917.931 773.56 C 921.57 767.76 934.547 762.853 941.005 759.342 C 959.918 749.059 979.176 739.267 998.298 729.368 C 1041.81 706.958 1085.11 684.136 1128.19 660.903 C 1190.53 626.61 1256.44 594.63 1319.47 560.823 z" fill="url(#Gradient5)" transform="translate(0,0)"></path>
<path d="M 1508.15 757.313 C 1511.4 764.355 1556.22 805.691 1564.97 814.138 C 1566.48 903.913 1571.5 994.825 1573.17 1084.73 C 1573.64 1110.26 1575.85 1142.48 1571.63 1167.87 C 1557.78 1251.14 1510.07 1331.8 1452.75 1392.83 C 1412.97 1435.18 1348.46 1482.24 1288.83 1485.98 C 1273.8 1486.92 1257.53 1480.97 1246.9 1470.24 C 1230.68 1453.86 1226.55 1428.78 1226.77 1406.68 C 1226.99 1385.57 1232.53 1360.8 1239.04 1340.69 C 1270.57 1243.33 1350.55 1151.81 1440.13 1102.96 C 1455.44 1094.61 1467.83 1087.54 1484.61 1081.48 C 1493.25 1078.36 1509.27 1073.88 1515.92 1068.44 C 1518.03 1066.71 1518.59 1054.96 1518.5 1051.61 C 1517.35 1011.69 1515.72 971.401 1514.05 931.518 C 1511.66 873.465 1509.69 815.395 1508.15 757.313 z" fill="rgb(231,182,138)" transform="translate(0,0)"></path>
<path d="M 1167.12 467.695 C 1205.8 450.181 1242.9 429.107 1280.62 409.624 C 1345.17 376.262 1409.48 342.45 1474.07 309.144 C 1495.46 298.116 1516.58 286.673 1538.09 275.799 C 1549.33 270.117 1565.8 259.842 1578.72 264.229 C 1582.79 265.61 1587.42 269.845 1588.92 274.161 C 1591.98 290.437 1591.71 314.85 1592.33 331.614 C 1594.07 376.784 1595.53 421.965 1596.71 467.154 L 1602.16 620.32 C 1603.35 668.855 1605 717.376 1607.11 765.879 C 1608.11 792.905 1608.6 821.807 1610.38 848.673 C 1610.22 852.335 1610.66 853.168 1609.05 856.171 C 1597.04 844.64 1584.88 833.277 1572.55 822.083 C 1569.92 814.213 1569.77 753.92 1569.35 740.012 L 1562.35 515.993 C 1561.82 499.899 1561.42 477.67 1560.55 461.185 C 1560.44 459.088 1558.37 457.703 1556.75 456.771 L 1554.76 457.645 C 1551.98 462.458 1554.18 483.992 1554.44 490.727 L 1556.37 548.765 C 1557.56 595.352 1558.99 641.932 1560.66 688.504 C 1562.26 729.374 1564.84 773.401 1564.97 814.138 C 1556.22 805.691 1511.4 764.355 1508.15 757.313 C 1506.87 697.459 1504.98 637.619 1502.5 577.803 C 1502.22 569.933 1501.19 518.971 1500.15 514.531 L 1498.34 513.824 C 1487.42 517.86 1471.87 527.711 1460.56 533.184 C 1425.38 550.208 1390.31 570.741 1355.43 587.786 C 1346.68 578.991 1339.16 572.475 1329.75 564.563 C 1340.88 558.493 1424.35 515.698 1427.67 512.019 C 1429.1 510.432 1428.99 510.048 1428.85 508.046 L 1426.92 506.495 C 1419.9 507.539 1332.31 554.233 1319.47 560.823 C 1288.88 535.627 1261.82 519.546 1226.8 500.6 C 1207.46 490.132 1185.62 479.122 1167.12 467.695 z" fill="rgb(255,237,225)" transform="translate(0,0)"></path>
<path d="M 846.6 1397.23 C 857.997 1396.51 882.761 1405.75 894.145 1409.6 C 894.119 1415.66 893.829 1424.55 894.238 1430.37 C 894.354 1463.42 895.2 1502.21 887.549 1534.31 C 863.061 1637.03 786.456 1740.87 697.998 1797.97 C 668.434 1815.96 630.188 1835.24 594.83 1827.37 C 539.019 1814.96 541.672 1747.45 554.711 1703.39 C 587.089 1594 669.21 1503.95 765.165 1444.83 C 780.051 1435.51 795.433 1427 811.242 1419.34 C 821.142 1414.54 833.315 1409.57 843.219 1404.55 C 845.739 1403.28 845.912 1400.08 846.6 1397.23 z" fill="rgb(255,237,225)" transform="translate(0,0)"></path>
<path d="M 1572.55 822.083 C 1584.88 833.277 1597.04 844.64 1609.05 856.171 C 1610.66 853.168 1610.22 852.335 1610.38 848.673 C 1612.1 867.524 1612.43 896.723 1612.93 916.057 L 1615.74 1006.36 C 1617.11 1047.25 1620.35 1104.77 1618.42 1144.87 C 1614.99 1216.4 1574.39 1301.46 1533.42 1359.93 C 1478.82 1436.18 1402.58 1510.9 1307.52 1530 C 1239.41 1543.69 1196.22 1508.26 1186.27 1442.02 C 1173.41 1356.34 1217.78 1267.44 1266.01 1199.51 C 1316.75 1128.05 1420.99 1043.47 1509.01 1029.37 C 1510.29 1040.74 1510.86 1053.64 1511.4 1065.08 C 1452.51 1078.77 1386.22 1123.63 1342.63 1166.62 C 1278.25 1229.81 1223 1315.14 1219.24 1407.59 C 1217.55 1448.96 1240.8 1496.43 1288 1493.81 C 1350.32 1490.35 1416.9 1442.21 1458.74 1397.95 C 1519.25 1333.93 1570.08 1246.52 1580.38 1157.75 C 1583.17 1127.58 1579.8 1064.36 1578.83 1032.12 C 1576.3 962.12 1574.21 892.107 1572.55 822.083 z" fill="rgb(231,182,138)" transform="translate(0,0)"></path>
<path d="M 779.978 1384.27 C 792.906 1376.89 821.261 1364.57 835.221 1359.13 C 835.471 1370.23 835.797 1381.33 836.201 1392.42 C 836.062 1394.88 836.411 1398.76 834.693 1399.64 C 827.668 1403.24 817.233 1408.14 810.449 1411.44 C 791.301 1420.65 772.604 1430.76 754.421 1441.76 C 657.946 1499.07 571.01 1603.36 544.146 1713.77 C 532.536 1761.49 534.639 1822.26 592.218 1835.09 C 629.324 1843.37 676.287 1821.55 707.219 1802.19 C 798.027 1740.88 870.031 1640.05 895.433 1533.21 C 904.459 1495.24 900.64 1453.02 902.264 1414.8 C 909.35 1415.81 935.041 1429.27 939.754 1434.24 C 939.85 1462.27 941.365 1489.99 935.548 1517.63 C 907.261 1655.97 814.45 1789.75 687.906 1855.1 C 658.433 1870.32 610.803 1885.61 577.807 1877.8 C 482.766 1855.3 498.702 1731.27 524.166 1664.1 C 565.081 1556.18 641.849 1469.55 738.338 1408.17 C 751.059 1400.08 766.346 1390.65 779.978 1384.27 z" fill="rgb(255,237,225)" transform="translate(0,0)"></path>
<path d="M 779.978 1384.27 C 792.906 1376.89 821.261 1364.57 835.221 1359.13 C 835.471 1370.23 835.797 1381.33 836.201 1392.42 C 811.742 1384.87 805.057 1385.14 779.978 1384.27 z" fill="rgb(231,182,138)" transform="translate(0,0)"></path>
<path d="M 589.417 1312.7 C 611.47 1314 623.331 1318.93 644.466 1323.47 C 665.112 1327.9 687.551 1327 707.785 1335.9 C 725.287 1342.99 740.77 1341.39 759.016 1342.58 C 778.548 1343.86 802.406 1347.52 821.094 1353.8 C 807.232 1358.95 794.322 1364.16 781.144 1370.92 C 775.823 1373.64 770.06 1376.88 764.084 1377.12 L 765.151 1379.26 C 761.843 1382.7 748.993 1389.08 744.029 1391.57 C 714.592 1410.95 689.967 1429.77 662.852 1452.09 C 653.893 1459.46 626.871 1487.09 620.098 1489.89 C 581.295 1505.9 530.772 1486.49 490.149 1487.16 C 473.935 1487.42 455.198 1501.78 439.453 1505.62 C 423.776 1509.77 413.349 1504.85 396.151 1511.41 C 399.675 1504.53 416.57 1470.4 421.602 1468.3 L 423.149 1468.39 L 422.922 1466.57 L 422.631 1465.43 C 446.877 1413.89 493.452 1439.98 536.806 1440.79 C 567.744 1441.37 599.014 1439.45 629.82 1436.52 C 639.767 1435.57 650.685 1435.65 660.38 1434.15 C 657.147 1434.09 655.344 1434.06 652.071 1433.6 L 652.491 1432.03 C 618.294 1430.84 582.124 1437.45 547.889 1435.85 C 506.294 1433.9 484.834 1420.9 442.911 1434.48 C 450.579 1425.32 457.474 1416.91 465.889 1408.4 C 478.775 1407.8 498.731 1407.41 511.027 1405.2 C 535.107 1400.89 562.715 1391.2 587.299 1391.26 C 614.382 1391.32 644.342 1396.04 671.484 1398.53 C 682.771 1399.57 695.422 1402 706.575 1401.4 C 677.22 1393.14 592.915 1382.06 562.489 1387.5 C 526.403 1393.95 510.051 1401.67 469.377 1403.08 C 481.73 1387.83 504.639 1367.94 520.114 1355.77 C 540.528 1339.43 542.729 1345.09 570.119 1344.82 L 570.398 1344.11 C 560.822 1342.93 548.632 1345.02 542.168 1342.48 L 543.07 1339.88 C 553.824 1331.07 576.635 1319.07 589.417 1312.7 z" fill="rgb(255,237,225)" transform="translate(0,0)"></path>
<path d="M 589.417 1312.7 C 611.47 1314 623.331 1318.93 644.466 1323.47 C 665.112 1327.9 687.551 1327 707.785 1335.9 C 725.287 1342.99 740.77 1341.39 759.016 1342.58 C 778.548 1343.86 802.406 1347.52 821.094 1353.8 C 807.232 1358.95 794.322 1364.16 781.144 1370.92 C 775.823 1373.64 770.06 1376.88 764.084 1377.12 C 754.768 1375.89 735.488 1377.15 725.15 1376.72 C 712.703 1376.2 693.769 1374.07 681.984 1374.79 C 677.806 1375.39 673.802 1374.64 669.57 1374.15 L 670.078 1374 C 640.237 1350.39 620.795 1364.96 596.947 1358.74 C 588.285 1349.3 583.392 1346.6 570.119 1344.82 L 570.398 1344.11 C 560.822 1342.93 548.632 1345.02 542.168 1342.48 L 543.07 1339.88 C 553.824 1331.07 576.635 1319.07 589.417 1312.7 z" fill="rgb(242,173,115)" transform="translate(0,0)"></path>
<path d="M 543.07 1339.88 C 555.487 1339.81 568.178 1338.08 580.339 1338.21 C 600.745 1338.44 621.687 1343.16 641.95 1344.83 C 661.219 1346.41 679.486 1345.83 698.953 1348.02 C 721.514 1350.55 737.744 1361.04 760.341 1359.53 C 772.516 1358.71 797.3 1351.6 807.421 1354.67 C 804.265 1358.71 774.358 1363.4 768.486 1364.29 C 744.197 1367.99 721.863 1357.65 698.086 1354.56 C 679.201 1352.11 659.36 1352.27 640.466 1350.41 C 616.342 1348.05 594.851 1344.74 570.398 1344.11 C 560.822 1342.93 548.632 1345.02 542.168 1342.48 L 543.07 1339.88 z" fill="rgb(66,54,58)" transform="translate(0,0)"></path>
<path d="M 520.114 1355.77 C 540.528 1339.43 542.729 1345.09 570.119 1344.82 C 583.392 1346.6 588.285 1349.3 596.947 1358.74 C 620.795 1364.96 640.237 1350.39 670.078 1374 L 669.57 1374.15 C 673.802 1374.64 677.806 1375.39 681.984 1374.79 C 693.769 1374.07 712.703 1376.2 725.15 1376.72 C 735.488 1377.15 754.768 1375.89 764.084 1377.12 L 765.151 1379.26 C 761.843 1382.7 748.993 1389.08 744.029 1391.57 C 739.092 1390.13 718.573 1385.38 714.393 1385.15 C 649.579 1381.56 582.171 1378.44 520.114 1355.77 z" fill="rgb(216,205,193)" transform="translate(0,0)"></path>
<path d="M 681.984 1374.79 C 693.769 1374.07 712.703 1376.2 725.15 1376.72 C 735.488 1377.15 754.768 1375.89 764.084 1377.12 L 765.151 1379.26 C 732.977 1380.86 713.843 1382.61 681.984 1374.79 z" fill="rgb(56,47,42)" transform="translate(0,0)"></path>
<path d="M 422.922 1466.57 C 443.753 1467.72 462.977 1459.19 486.527 1459.86 C 515.53 1460.69 537.707 1469.85 565.865 1472.33 C 582.334 1473.79 603.061 1469.15 619.525 1467.1 C 629.641 1465.85 639.626 1465.28 649.819 1464.73 C 640.789 1468.28 632.149 1469.35 622.865 1471.38 C 595.574 1477.4 567.732 1480.31 540.012 1475.13 C 520.389 1471.46 502.346 1466.92 482.305 1465.89 C 466.405 1465.08 436.287 1475.7 423.149 1468.39 L 422.922 1466.57 z" fill="rgb(66,54,58)" transform="translate(0,0)"></path>
<path d="M 652.491 1432.03 C 661.412 1431.92 669.354 1431.73 678.284 1432.44 C 671.035 1433.72 667.775 1433.93 660.38 1434.15 C 657.147 1434.09 655.344 1434.06 652.071 1433.6 L 652.491 1432.03 z" fill="rgb(56,47,42)" transform="translate(0,0)"></path>
<path d="M 1477.8 280.06 C 1482.99 279.679 1487.21 279.918 1492.43 279.234 C 1500.06 278.232 1506.9 275.548 1514.17 274.059 L 1515.93 273.709 C 1510.21 279.001 1492.14 287.097 1484.28 291.192 C 1447.27 310.483 1416.41 334.29 1372.42 332.479 C 1359.23 331.936 1336.06 328.886 1323.39 325.043 C 1301.49 318.398 1258.54 298.806 1235.69 309.049 L 1235.7 310.335 C 1242.3 311.525 1248.75 309.83 1255.18 310.358 C 1275.07 311.991 1293.19 321.578 1311.54 327.699 C 1337.47 336.348 1367.7 339.635 1394.85 337.641 C 1381.52 344.557 1368.3 351.683 1355.19 359.016 C 1328.76 355.199 1308.93 359.191 1282.56 355.666 C 1267.02 353.588 1224.19 335.785 1213.06 337.307 C 1225.52 344.557 1256.99 354.133 1271.88 359.783 C 1291.34 367.167 1322.69 362.412 1343.94 363.713 L 1331.27 371.676 C 1302.58 373.513 1283.93 377.331 1254.47 371.89 C 1226.88 366.792 1197.08 348.425 1172.4 342.918 C 1163.66 340.969 1095.57 342.41 1087.12 344.441 C 1087.96 346.26 1089.91 347.406 1091.64 348.807 C 1136.55 348.8 1170.92 340.735 1212.05 362.541 C 1246.78 380.948 1280.84 383.598 1319.55 377.598 C 1311.23 382.484 1290.13 395.119 1281.45 394.332 C 1280.84 395.379 1279.22 398.353 1278.6 399.161 C 1276.53 402.189 1261.31 409.024 1257.13 410.64 C 1255.55 411.762 1218.02 431.449 1217.42 431.6 C 1207.91 436.965 1196.71 442.107 1186.66 446.533 C 1183.12 448.857 1172.4 453.671 1168.13 455.401 L 1155.92 461.162 C 1155.4 459.643 1155.07 457.539 1154.75 455.914 C 1154.31 452.615 1148.83 448.103 1146.27 445.642 L 1146.46 441.304 L 1144.9 437.647 L 1142.44 433.455 C 1141.15 431.261 1135.3 426.861 1132.99 424.943 C 1134.54 422.752 1135.84 420.046 1138.9 419.932 C 1161.35 419.097 1183.38 429.86 1205.06 433.881 C 1207.08 434.257 1209.1 432.583 1210.54 431.237 C 1193.72 424.739 1152.91 412.332 1135.1 415.749 C 1130.28 413.494 1117.68 403.666 1112.72 399.93 C 1147.21 397.974 1168.97 405.913 1200.7 417.483 C 1206.52 419.607 1222.32 427.293 1227.39 424.098 L 1227.14 422.697 C 1219.46 415.946 1156.11 395.72 1142.9 395.183 C 1136.24 394.913 1120.3 394.42 1113.35 393.588 L 1112.37 393.46 C 1100.03 390.896 1088.43 387.231 1075.8 385.173 C 1061.53 382.847 1048.18 385.057 1034.27 384.487 C 1020.07 383.904 1008.12 381.598 993.436 381.866 C 1002.89 377.344 1026.97 365.003 1035.71 362.052 C 1039.05 358.98 1066.91 344.862 1072.21 342.096 C 1087.97 332.907 1125.16 316.051 1142.85 309.945 C 1145.9 308.894 1166.66 308.769 1170.61 308.714 C 1163.17 306.609 1157.27 308.489 1149.2 307.174 L 1151.21 305.439 L 1150.79 304.761 C 1153.22 301.139 1167.91 293.921 1172.46 291.631 C 1193.21 281.184 1220.72 274.393 1244.01 276.253 C 1252.9 276.963 1259.89 279.971 1270.3 280.167 C 1283.92 280.424 1305.63 278.392 1318.51 280.952 C 1349.19 287.048 1377.53 296.849 1409.38 297.024 C 1436.82 297.175 1452.97 288.499 1477.8 280.06 z" fill="rgb(255,237,225)" transform="translate(0,0)"></path>
<path d="M 1089.99 365.738 C 1114.64 363.948 1138.72 362.694 1163.22 367.308 C 1203.85 374.96 1235.92 397.451 1278.6 399.161 C 1276.53 402.189 1261.31 409.024 1257.13 410.64 C 1255.55 411.762 1218.02 431.449 1217.42 431.6 C 1207.91 436.965 1196.71 442.107 1186.66 446.533 C 1183.12 448.857 1172.4 453.671 1168.13 455.401 L 1155.92 461.162 C 1155.4 459.643 1155.07 457.539 1154.75 455.914 C 1154.31 452.615 1148.83 448.103 1146.27 445.642 L 1146.46 441.304 L 1144.9 437.647 L 1142.44 433.455 C 1141.15 431.261 1135.3 426.861 1132.99 424.943 C 1134.54 422.752 1135.84 420.046 1138.9 419.932 C 1161.35 419.097 1183.38 429.86 1205.06 433.881 C 1207.08 434.257 1209.1 432.583 1210.54 431.237 C 1193.72 424.739 1152.91 412.332 1135.1 415.749 C 1130.28 413.494 1117.68 403.666 1112.72 399.93 C 1147.21 397.974 1168.97 405.913 1200.7 417.483 C 1206.52 419.607 1222.32 427.293 1227.39 424.098 L 1227.14 422.697 C 1219.46 415.946 1156.11 395.72 1142.9 395.183 C 1136.24 394.913 1120.3 394.42 1113.35 393.588 L 1112.37 393.46 C 1111.39 391.322 1107.1 384.814 1105.62 382.391 C 1098.45 384.175 1078.96 381.54 1072.6 377.652 L 1072.32 376.253 C 1078.22 372.976 1093.95 374.892 1101.3 375.376 C 1099.87 373.407 1092.46 367.808 1089.99 365.738 z" fill="rgb(255,237,225)" transform="translate(0,0)"></path>
<path d="M 1105.62 382.391 C 1098.45 384.175 1078.96 381.54 1072.6 377.652 L 1072.32 376.253 C 1078.22 372.976 1093.95 374.892 1101.3 375.376 C 1103.74 376.121 1132.98 376.22 1139.63 376.823 C 1161.5 378.808 1226.46 401.083 1243.98 413.398 C 1242.98 414.423 1242.45 414.65 1241.25 415.456 C 1233.62 415.382 1192.9 396.604 1180.12 392.754 C 1165.18 388.254 1119.98 375.126 1105.62 382.391 z" fill="rgb(66,54,58)" transform="translate(0,0)"></path>
<path d="M 1144.9 437.647 C 1159.85 439.348 1172.23 442.693 1186.66 446.533 C 1183.12 448.857 1172.4 453.671 1168.13 455.401 L 1155.92 461.162 C 1155.4 459.643 1155.07 457.539 1154.75 455.914 C 1154.31 452.615 1148.83 448.103 1146.27 445.642 L 1146.46 441.304 L 1144.9 437.647 z" fill="rgb(255,237,225)" transform="translate(0,0)"></path>
<path d="M 1146.46 441.304 C 1157.44 443.559 1160.41 447.38 1168.13 455.401 L 1155.92 461.162 C 1155.4 459.643 1155.07 457.539 1154.75 455.914 C 1154.31 452.615 1148.83 448.103 1146.27 445.642 L 1146.46 441.304 z" fill="rgb(231,182,138)" transform="translate(0,0)"></path>
<path d="M 1142.44 433.455 C 1152.15 433.42 1180.39 439.162 1189.55 441.898 L 1190.26 442.797 L 1186.66 446.533 C 1172.23 442.693 1159.85 439.348 1144.9 437.647 L 1142.44 433.455 z" fill="rgb(66,54,58)" transform="translate(0,0)"></path>
<path d="M 1035.71 362.052 C 1039.05 358.98 1066.91 344.862 1072.21 342.096 C 1078.77 347.516 1080.41 352.384 1084.22 359.888 C 1073.13 359.689 1046.12 357.971 1036.74 362.419 C 1046.1 366.351 1078.64 365.96 1089.99 365.738 C 1092.46 367.808 1099.87 373.407 1101.3 375.376 C 1093.95 374.892 1078.22 372.976 1072.32 376.253 L 1072.6 377.652 C 1078.96 381.54 1098.45 384.175 1105.62 382.391 C 1107.1 384.814 1111.39 391.322 1112.37 393.46 C 1100.03 390.896 1088.43 387.231 1075.8 385.173 C 1061.53 382.847 1048.18 385.057 1034.27 384.487 C 1020.07 383.904 1008.12 381.598 993.436 381.866 C 1002.89 377.344 1026.97 365.003 1035.71 362.052 z" fill="rgb(221,158,199)" transform="translate(0,0)"></path>
<path d="M 1084.22 359.888 C 1110.75 358.929 1131.7 357.212 1158.37 361.272 C 1201.17 367.784 1237.78 391.833 1281.45 394.332 C 1280.84 395.379 1279.22 398.353 1278.6 399.161 C 1235.92 397.451 1203.85 374.96 1163.22 367.308 C 1138.72 362.694 1114.64 363.948 1089.99 365.738 C 1078.64 365.96 1046.1 366.351 1036.74 362.419 C 1046.12 357.971 1073.13 359.689 1084.22 359.888 z" fill="rgb(66,54,58)" transform="translate(0,0)"></path>
<path d="M 1151.21 305.439 C 1162.31 304.881 1200.06 301.528 1206.98 307.886 C 1207.95 307.588 1172.1 308.708 1170.61 308.714 C 1163.17 306.609 1157.27 308.489 1149.2 307.174 L 1151.21 305.439 z" fill="rgb(56,47,42)" transform="translate(0,0)"></path>
<path d="M 1287.07 293.725 C 1299.57 294.709 1314.07 300.78 1326.19 303.388 C 1359.5 310.551 1393.96 313.668 1427.48 306.145 C 1433.32 304.834 1450.44 300.611 1454.64 303.197 L 1452.73 304.393 C 1436.28 312.229 1408.91 317.721 1390.86 316.965 C 1357.33 315.561 1318.96 311.796 1288.23 298.252 C 1287 297.709 1287.2 295.013 1287.07 293.725 z" fill="rgb(66,54,58)" transform="translate(0,0)"></path>
<path d="M 1129.05 321.55 C 1129.92 321.469 1130.79 321.402 1131.65 321.348 C 1146.64 320.364 1194.44 320.025 1205.4 329.553 L 1204.09 330.626 C 1198.95 331.935 1196.25 330.69 1191.08 329.341 C 1173.81 326.015 1140.1 325.744 1122.17 327.105 L 1119.49 324.49 L 1115.58 324.664 L 1115.82 323.475 C 1120.2 321.746 1124.31 321.855 1129.05 321.55 z" fill="rgb(66,54,58)" transform="translate(0,0)"></path>
<path d="M 1366.45 195.514 C 1448.27 148.894 1468.57 194.64 1539.58 235.495 C 1547.65 240.141 1557.38 245.875 1564.79 251.151 C 1556.27 253.627 1555.48 254.014 1547.85 257.321 C 1538.58 261.347 1525.01 271.73 1516.16 273.037 L 1515.93 273.709 L 1514.17 274.059 C 1506.9 275.548 1500.06 278.232 1492.43 279.234 C 1487.21 279.918 1482.99 279.679 1477.8 280.06 L 1477.68 278.342 C 1492.51 266.569 1516.06 266.235 1529.41 261.511 L 1529.77 259.919 L 1528.11 258.475 C 1509.4 254.635 1468.83 276.972 1450.22 283.659 C 1439.61 287.587 1428.51 290.043 1417.23 290.958 C 1384.24 293.518 1355.05 282.485 1323.07 277.03 C 1307.78 273.229 1285.57 278.02 1271.38 275.723 C 1247.34 271.831 1235.09 270.319 1210.59 272.293 C 1229.41 263.28 1257.56 248.327 1276.62 242.305 C 1277.91 241.035 1279.34 240 1280.77 238.879 C 1286.51 233.969 1323.32 215.553 1330.83 214.738 C 1351.15 212.532 1376.97 224.119 1397.85 223.267 C 1431.64 221.888 1456.18 210.243 1490.56 213.477 C 1459.37 201.817 1432.96 217.605 1402.68 217.308 C 1381.27 217.098 1358.67 211.131 1336.09 209.748 C 1343.94 205.844 1351.85 202.064 1359.82 198.41 C 1381.28 204.127 1394.38 202.194 1415.3 194.439 L 1413.3 191.851 C 1407.6 191.443 1394.6 196.892 1386.72 197.685 L 1386.25 196.288 C 1378.82 196.502 1373.88 196.126 1366.45 195.514 z" fill="rgb(255,237,225)" transform="translate(0,0)"></path>
<path d="M 1280.77 238.879 C 1315.27 238.116 1309.98 240.203 1343.74 250.737 C 1380.32 262.146 1428.89 247.166 1463.68 234.144 C 1476.81 229.233 1494.06 223.575 1509.63 231.544 C 1510.69 232.087 1510.47 232.909 1510.65 234.235 C 1504.82 235.688 1497.59 230.541 1484.72 233.873 C 1473.05 236.895 1462.82 240.985 1451.63 244.681 C 1419.86 255.177 1386.26 263.217 1352.69 257.72 C 1319.48 252.284 1313.02 240.185 1276.62 242.305 C 1277.91 241.035 1279.34 240 1280.77 238.879 z" fill="rgb(66,54,58)" transform="translate(0,0)"></path>
<path d="M 1386.25 196.288 C 1401.4 193.306 1430.82 180.94 1444.43 186.033 L 1444.25 187.071 C 1441.17 188.887 1418.96 194.046 1415.3 194.439 L 1413.3 191.851 C 1407.6 191.443 1394.6 196.892 1386.72 197.685 L 1386.25 196.288 z" fill="rgb(66,54,58)" transform="translate(0,0)"></path>
<path d="M 1477.8 280.06 C 1483.07 278.651 1513.24 271.528 1516.16 273.037 L 1515.93 273.709 L 1514.17 274.059 C 1506.9 275.548 1500.06 278.232 1492.43 279.234 C 1487.21 279.918 1482.99 279.679 1477.8 280.06 z" fill="rgb(66,54,58)" transform="translate(0,0)"></path>
<path d="M 1522.41 242.406 C 1531.69 242.161 1547.39 244.526 1554.75 250.357 L 1554.88 251.991 C 1552.3 254.017 1540.04 248.965 1535.61 248.116 C 1530.11 247.041 1524.48 246.803 1518.91 247.412 C 1497.91 249.579 1467.03 261.78 1446.07 268.027 C 1429.02 273.11 1418.36 275.271 1400.99 278.099 C 1397.38 278.513 1393.76 278.732 1390.13 278.756 C 1384.05 278.756 1368.1 278.651 1364.26 274.771 C 1364.17 271.953 1363.65 273.126 1365.57 271.068 C 1424.67 282.748 1470.95 245.242 1522.41 242.406 z" fill="rgb(66,54,58)" transform="translate(0,0)"></path>
<path d="M 1140.4 1058.17 C 1161.06 1054.06 1177.93 1052.48 1198.84 1050.77 C 1219 1049.11 1238.82 1045.03 1259.14 1047.56 C 1278.73 1049.99 1297.05 1056.84 1316.69 1057.67 C 1333.29 1058.37 1350.79 1054.06 1366.97 1053.27 C 1382.53 1052.52 1400.11 1053 1415.82 1053.03 C 1396.42 1062.44 1370.16 1081.8 1352.99 1094.99 C 1350.85 1097.51 1351.09 1097.51 1347.96 1098.41 C 1337.75 1108.51 1314.94 1128.56 1303.68 1138.15 C 1277.84 1141.1 1264.2 1138.58 1238.98 1136.03 C 1227.88 1134.91 1212.45 1136.44 1200.78 1134.95 C 1178.14 1132.05 1167.2 1124.01 1143.89 1129.99 C 1111.88 1138.21 1094.68 1153.78 1062.65 1165.57 C 1070.78 1146.37 1075.82 1138.21 1087.83 1120.97 C 1093.84 1122.14 1103.51 1121.12 1108.72 1118.15 C 1106.86 1116.64 1098.06 1119.63 1091.56 1119.25 C 1090.11 1118.22 1090.67 1118.91 1090 1117.09 L 1090.82 1115.76 C 1092.17 1113.57 1093.55 1111.4 1094.96 1109.25 C 1096.18 1107.41 1099.62 1102.71 1101.85 1101.89 C 1118.69 1095.72 1136.16 1089.25 1154.03 1087.23 C 1161.19 1086.41 1167.45 1087.99 1172 1087.04 L 1171.66 1085.63 C 1155.68 1074.9 1124 1087.8 1107.28 1094.05 C 1116.88 1080.84 1128 1068.8 1140.4 1058.17 z" fill="rgb(231,182,138)" transform="translate(0,0)"></path>
<path d="M 1108.72 1118.15 C 1128.54 1111.86 1147.89 1106.21 1168.31 1102.1 C 1183.2 1098.65 1198.57 1103.17 1213.07 1106.6 C 1245.98 1114.38 1275.37 1106.49 1307.19 1098.9 C 1317.13 1096.53 1337.11 1098.06 1347.96 1098.41 C 1337.75 1108.51 1314.94 1128.56 1303.68 1138.15 C 1277.84 1141.1 1264.2 1138.58 1238.98 1136.03 C 1227.88 1134.91 1212.45 1136.44 1200.78 1134.95 C 1178.14 1132.05 1167.2 1124.01 1143.89 1129.99 C 1111.88 1138.21 1094.68 1153.78 1062.65 1165.57 C 1070.78 1146.37 1075.82 1138.21 1087.83 1120.97 C 1093.84 1122.14 1103.51 1121.12 1108.72 1118.15 z" fill="rgb(231,182,138)" transform="translate(0,0)"></path>
<path d="M 1090.82 1115.76 C 1101.93 1117.55 1121.31 1107.45 1133.12 1104.98 C 1144.84 1102.54 1157.5 1099.53 1169.39 1098.22 C 1197.33 1095.14 1218.22 1105.58 1247.51 1104.22 C 1270.75 1103.14 1283.55 1098.85 1305.96 1095.08 C 1315.89 1093.41 1340.93 1094.82 1352.99 1094.99 C 1350.85 1097.51 1351.09 1097.51 1347.96 1098.41 C 1337.11 1098.06 1317.13 1096.53 1307.19 1098.9 C 1275.37 1106.49 1245.98 1114.38 1213.07 1106.6 C 1198.57 1103.17 1183.2 1098.65 1168.31 1102.1 C 1147.89 1106.21 1128.54 1111.86 1108.72 1118.15 C 1106.86 1116.64 1098.06 1119.63 1091.56 1119.25 C 1090.11 1118.22 1090.67 1118.91 1090 1117.09 L 1090.82 1115.76 z" fill="url(#Gradient4)" transform="translate(0,0)"></path>
<path d="M 1235.08 989.629 C 1241.91 985.784 1254.89 977.802 1261.93 976.688 C 1282.53 973.21 1300.93 975.813 1321.18 979.346 C 1331.84 981.206 1345.68 979.029 1356.4 981.239 C 1387.84 987.718 1418.64 995.168 1450.59 998.78 C 1455.04 999.283 1484.42 1015.28 1486.45 1018.24 C 1483.76 1019.55 1482.72 1019.33 1479.72 1019.48 L 1475.04 1023.44 C 1470.12 1026.22 1430.31 1044.25 1425.36 1045.81 C 1417.96 1048.14 1379.76 1047.48 1368.25 1048.01 C 1353.19 1048.69 1322.16 1054.2 1309.26 1052.04 C 1291.42 1049.6 1266.63 1039.57 1248.87 1040.2 C 1217.17 1041.34 1178.29 1044.81 1147.34 1050.89 C 1158.59 1041.41 1196.63 1008.99 1209.05 1005.52 L 1212.82 1002.13 C 1217.34 998.616 1229.56 989.846 1234.86 991.977 L 1235.08 989.629 z" fill="rgb(231,182,138)" transform="translate(0,0)"></path>
<path d="M 1235.08 989.629 C 1241.91 985.784 1254.89 977.802 1261.93 976.688 C 1282.53 973.21 1300.93 975.813 1321.18 979.346 C 1331.84 981.206 1345.68 979.029 1356.4 981.239 C 1387.84 987.718 1418.64 995.168 1450.59 998.78 C 1455.04 999.283 1484.42 1015.28 1486.45 1018.24 C 1483.76 1019.55 1482.72 1019.33 1479.72 1019.48 L 1475.04 1023.44 C 1459.67 1020.75 1443.78 1021.44 1428.41 1018.15 C 1408.05 1014.22 1387.31 1004.63 1366.63 1002.96 C 1334.9 1000.41 1302.73 1004.66 1270.88 1000.69 C 1257.45 999.013 1247.57 996.441 1234.86 991.977 L 1235.08 989.629 z" fill="rgb(231,182,138)" transform="translate(0,0)"></path>
<path d="M 1235.08 989.629 C 1252.28 991.685 1268.88 996.54 1286.28 996.908 C 1303.9 997.282 1321.59 997.006 1339.21 996.56 C 1348.63 996.322 1357.37 996.213 1366.73 997.345 C 1389.96 1000.15 1411.61 1009.63 1434.51 1013.91 C 1448.31 1016.32 1467.23 1016.05 1479.72 1019.48 L 1475.04 1023.44 C 1459.67 1020.75 1443.78 1021.44 1428.41 1018.15 C 1408.05 1014.22 1387.31 1004.63 1366.63 1002.96 C 1334.9 1000.41 1302.73 1004.66 1270.88 1000.69 C 1257.45 999.013 1247.57 996.441 1234.86 991.977 L 1235.08 989.629 z" fill="rgb(66,54,58)" transform="translate(0,0)"></path>
<path d="M 1220.92 1001.06 C 1240.06 998.462 1259.68 1006.69 1278.82 1008.02 C 1294.13 1009.08 1310.94 1013.07 1326.02 1013.86 C 1351.2 1015.17 1371.78 1017.78 1396.1 1024.7 C 1410.18 1028.7 1428.41 1027.38 1442.27 1034.07 L 1443.15 1035.4 C 1428.18 1039.49 1380.12 1023.81 1363.32 1022.01 C 1333.55 1018.83 1303.72 1017.33 1274.08 1012.61 C 1259.66 1010.31 1237.27 1003.15 1223.88 1005.4 C 1217.31 1007.54 1215.78 1007.17 1209.05 1005.52 L 1212.82 1002.13 L 1220.92 1001.06 z" fill="rgb(66,54,58)" transform="translate(0,0)"></path>
<path d="M 778.858 494.058 C 790.701 497.196 829.299 500.188 842.171 500.186 C 866.086 499.55 891.247 478.879 914.517 478.464 C 938.783 478.031 959.914 489.937 986.359 489.228 C 1041.53 487.748 1063.21 461.822 1119.01 479.454 C 1099.34 489.21 1074.26 502.436 1054.35 510.861 C 1012.96 500.764 990.359 516.148 949.283 518.273 C 919.069 519.836 888.698 511.008 858.769 515.306 C 851.129 516.403 802.552 531.746 798.938 535.297 L 800.814 536.584 C 825.12 533.356 840.809 522.909 863.452 519.469 C 881.561 516.718 904.673 520.79 923.029 522.651 C 935.776 523.943 944.945 522.602 956.544 522.469 C 978.883 522.212 1022.46 507.78 1041.92 513.66 L 1042.85 515.049 C 1039.28 520.037 1017.77 528.11 1011.24 530.01 C 1007.14 531.205 997.441 530.747 992.393 532.392 C 960.622 542.743 927.216 547.96 893.92 543.031 C 886.092 541.873 875.974 536.329 867.983 536.413 C 844.615 536.659 822.211 538.48 798.721 537.977 C 763.076 537.198 749.024 532.425 717.606 555.442 C 709.671 550.04 703.398 545.506 696.235 539.194 C 706.554 528.805 764.316 498.309 778.858 494.058 z" fill="rgb(221,158,199)" transform="translate(0,0)"></path>
<path d="M 914.337 423.666 C 954.124 405.86 966.01 418.421 999.701 434.367 C 1009.86 439.177 1047.84 436.046 1061.79 436.089 C 1078.88 436.285 1095.93 437.671 1112.82 440.237 C 1132.09 443.275 1145.02 453.969 1154.75 455.914 C 1155.07 457.539 1155.4 459.643 1155.92 461.162 L 1144.32 466.828 C 1140.12 468.924 1128.61 475.023 1124.8 476.38 C 1061.88 449.454 1020.42 496.114 958.48 481.475 C 926.619 473.945 915.38 465.965 882.771 481.609 C 859.84 492.611 836.531 498.526 811.645 492.374 C 804.696 490.977 793.162 491.038 785.825 489.575 C 797.986 482.025 822.827 470.016 836.257 463.244 L 914.337 423.666 z" fill="rgb(221,158,199)" transform="translate(0,0)"></path>
<path d="M 914.337 423.666 C 954.124 405.86 966.01 418.421 999.701 434.367 C 1009.86 439.177 1047.84 436.046 1061.79 436.089 C 1078.88 436.285 1095.93 437.671 1112.82 440.237 C 1132.09 443.275 1145.02 453.969 1154.75 455.914 C 1155.07 457.539 1155.4 459.643 1155.92 461.162 L 1144.32 466.828 L 1143.5 465.495 C 1142.51 453.407 1111.2 450.685 1101.67 450.823 C 1090.91 450.979 1080.22 451.035 1069.5 451.721 C 1045.69 453.245 1020.84 458.875 997.238 453.374 C 975.055 448.381 962.586 435.825 942.153 428.54 C 937.982 427.053 927.452 426.196 922.651 425.778 L 914.337 423.666 z" fill="url(#Gradient3)" transform="translate(0,0)"></path>
<path d="M 922.651 425.778 C 927.452 426.196 937.982 427.053 942.153 428.54 C 962.586 435.825 975.055 448.381 997.238 453.374 C 1020.84 458.875 1045.69 453.245 1069.5 451.721 C 1080.22 451.035 1090.91 450.979 1101.67 450.823 C 1111.2 450.685 1142.51 453.407 1143.5 465.495 C 1114.08 446.012 1041.88 464.228 1006.9 459.897 C 976.555 456.14 964.312 443.554 937.356 432.257 C 932.714 430.311 917.406 431.447 913.778 426.977 C 916.429 425.581 919.547 425.867 922.651 425.778 z" fill="rgb(89,75,77)" transform="translate(0,0)"></path>
<path d="M 841.027 1188.23 C 854.8 1175.97 884.67 1136.48 895.685 1121.52 C 894.895 1192.31 894.553 1263.1 894.66 1333.9 L 894.645 1395.15 C 894.659 1405.57 895.091 1420.32 894.238 1430.37 C 893.829 1424.55 894.119 1415.66 894.145 1409.6 C 882.761 1405.75 857.997 1396.51 846.6 1397.23 C 845.002 1390.19 845.425 1345.95 845.181 1335.19 L 841.027 1188.23 z" fill="rgb(231,182,138)" transform="translate(0,0)"></path>
<path d="M 937.347 990.613 C 940.37 1137.42 938.037 1286.99 939.754 1434.24 C 935.041 1429.27 909.35 1415.81 902.264 1414.8 C 903.303 1387.33 902.649 1356.87 902.788 1329.09 L 903.32 1108.84 C 907.074 1108.3 932.905 1071.41 937.222 1065.55 C 937.614 1040.71 936.909 1015.65 937.347 990.613 z" fill="rgb(231,182,138)" transform="translate(0,0)"></path>
<path d="M 1050.47 1196.78 C 1071.17 1191.07 1080.44 1192.69 1100.35 1189.95 C 1118.71 1187.42 1137.12 1177.35 1157.15 1177.04 C 1177.98 1176.72 1198.11 1177.1 1218.89 1177.18 C 1239.38 1176.78 1256.44 1173.43 1276.37 1169.62 C 1271.92 1175.62 1268.46 1179.67 1263.45 1185.26 L 1244.25 1185.38 C 1247.55 1187.06 1256.2 1185.86 1261.63 1187.38 L 1261.99 1188.31 C 1259.16 1190.35 1252.62 1189.88 1248.48 1190.14 C 1252.34 1190.56 1256.21 1190.9 1260.08 1191.19 C 1254.05 1199.77 1248.09 1208.4 1242.19 1217.08 C 1226.57 1215.82 1213.29 1215.12 1197.51 1217.13 C 1179.72 1219.38 1162.1 1223.79 1144.33 1225.59 L 1149.53 1226.25 C 1148.71 1227.4 1141.19 1226.96 1138.28 1227.85 C 1126.84 1231.36 1103.08 1219.3 1091.96 1220.58 C 1092.97 1221.82 1095.33 1221.84 1097.38 1222.26 L 1096.3 1223.3 C 1099.24 1224.87 1105.85 1226.32 1109.24 1227.39 C 1140.35 1237.27 1169.77 1226.33 1200.86 1222.51 C 1214.87 1220.79 1225.03 1220.71 1239.18 1221.82 C 1234.33 1230.47 1228.42 1239.6 1223.17 1248.08 C 1190.46 1234.92 1149.3 1255.57 1119.94 1250.7 C 1083.94 1244.72 1090.14 1225.74 1042.26 1229.38 C 1043.2 1225.37 1044.35 1217.38 1047.1 1215.04 C 1054.83 1215.38 1058.61 1214.6 1065.8 1212.54 C 1061.62 1210.49 1065.09 1214.82 1058.92 1209.38 C 1055.21 1209.68 1051.01 1210.14 1047.34 1210.31 C 1048.07 1206.09 1049.45 1201.02 1050.47 1196.78 z" fill="rgb(231,182,138)" transform="translate(0,0)"></path>
<path d="M 1050.47 1196.78 C 1071.17 1191.07 1080.44 1192.69 1100.35 1189.95 C 1118.71 1187.42 1137.12 1177.35 1157.15 1177.04 C 1177.98 1176.72 1198.11 1177.1 1218.89 1177.18 C 1239.38 1176.78 1256.44 1173.43 1276.37 1169.62 C 1271.92 1175.62 1268.46 1179.67 1263.45 1185.26 L 1244.25 1185.38 C 1247.55 1187.06 1256.2 1185.86 1261.63 1187.38 L 1261.99 1188.31 C 1259.16 1190.35 1252.62 1189.88 1248.48 1190.14 C 1208.23 1189.91 1192.9 1192.61 1155.78 1206.25 C 1140.66 1211.8 1079.59 1218.6 1065.8 1212.54 C 1061.62 1210.49 1065.09 1214.82 1058.92 1209.38 C 1055.21 1209.68 1051.01 1210.14 1047.34 1210.31 C 1048.07 1206.09 1049.45 1201.02 1050.47 1196.78 z" fill="rgb(231,182,138)" transform="translate(0,0)"></path>
<path d="M 1058.92 1209.38 C 1070.04 1207.04 1074.07 1210.32 1084.63 1210.15 C 1099.28 1209.91 1114.49 1206.7 1129.05 1205.46 C 1150.62 1203.63 1168.96 1195.82 1189.37 1189.76 C 1205.99 1185.09 1226.9 1185.08 1244.25 1185.38 C 1247.55 1187.06 1256.2 1185.86 1261.63 1187.38 L 1261.99 1188.31 C 1259.16 1190.35 1252.62 1189.88 1248.48 1190.14 C 1208.23 1189.91 1192.9 1192.61 1155.78 1206.25 C 1140.66 1211.8 1079.59 1218.6 1065.8 1212.54 C 1061.62 1210.49 1065.09 1214.82 1058.92 1209.38 z" fill="rgb(66,54,58)" transform="translate(0,0)"></path>
<path d="M 1096.3 1223.3 L 1094.57 1223.18 C 1083.29 1222.44 1069.05 1225.91 1061.17 1222.82 L 1059.82 1220.76 L 1060.16 1219.47 C 1067.14 1219.16 1064.59 1220.92 1074.83 1219.09 C 1099.42 1214.69 1118.44 1227.94 1144.33 1225.59 L 1149.53 1226.25 C 1148.71 1227.4 1141.19 1226.96 1138.28 1227.85 C 1126.84 1231.36 1103.08 1219.3 1091.96 1220.58 C 1092.97 1221.82 1095.33 1221.84 1097.38 1222.26 L 1096.3 1223.3 z" fill="rgb(66,54,58)" transform="translate(0,0)"></path>
<path d="M 1372.04 811.875 C 1376.49 820.013 1389.21 832.108 1395.95 839.171 C 1406.35 850.187 1416.92 861.044 1427.66 871.736 C 1458.2 901.605 1508.39 946.858 1505.78 995.26 C 1505.59 998.793 1507.51 1010.43 1504.61 1010.37 C 1490.97 1010.09 1454.04 985.757 1443.93 978.641 C 1440.45 973.336 1437.22 966.1 1433.4 961.298 C 1422.65 947.747 1406.88 938.189 1395.04 925.81 C 1388.49 918.97 1383.29 908.933 1376.68 901.878 C 1372.98 895.282 1372.49 868.009 1373.73 860.557 C 1382.17 875.378 1399.35 886.847 1410.55 899.37 C 1431.13 922.921 1453.7 944.62 1472.83 969.368 C 1477.43 975.315 1494.84 1006.73 1498.57 1008.15 L 1499.95 1007.03 C 1499.89 1001.95 1492.96 992.92 1490.32 988.11 C 1461.39 935.372 1414.65 900.086 1374.63 855.929 C 1371.3 852.146 1372.55 841.475 1372.26 835.751 C 1407.02 872.029 1444.62 907.071 1475.65 946.799 C 1483.85 957.305 1490.75 969.594 1497.61 981.066 L 1499.19 980.405 C 1505.87 959.183 1390.32 847.268 1372.52 829.204 C 1372.35 823.48 1372.11 817.582 1372.04 811.875 z" fill="rgb(242,173,115)" transform="translate(0,0)"></path>
<path d="M 1379.75 882.701 C 1389.54 884.789 1411.21 916.039 1418.61 925.145 C 1432.07 941.721 1471.65 972.246 1473.23 993.523 C 1468.53 991.696 1461 975.095 1456.42 971.083 C 1425.14 943.67 1404.41 916.065 1379.75 882.701 z" fill="rgb(89,75,77)" transform="translate(0,0)"></path>
<path d="M 395.433 1606.88 C 385.555 1602.92 374.275 1609.46 367.649 1604.49 C 366.757 1601.41 366.756 1602.94 367.872 1599.75 C 372.332 1597.99 379.371 1598.92 383.396 1597.16 C 420.028 1581.15 456.651 1597.51 494.813 1596.97 C 512.342 1596.73 529.665 1592.64 547.689 1589.65 C 543.038 1598.5 541.572 1605.79 531.162 1607.43 L 535.003 1609.97 C 535.567 1614 529.41 1622.62 527.659 1628.03 L 526.041 1630.02 C 525.236 1635.05 521.832 1644.02 518.264 1647.56 C 505.215 1646.96 485.512 1643.23 472.855 1639.6 C 456.773 1635.28 436.466 1619.78 419.602 1621.13 C 408.036 1622.06 395.996 1629.85 382.903 1631.71 L 381.785 1635.65 C 397.88 1636.92 414.081 1623.74 424.26 1626.54 C 460.846 1636.59 476.535 1653.82 518.32 1648.53 C 517.422 1652.46 514.325 1661.8 510.817 1664.07 C 483.845 1667.3 452.223 1644.08 425.971 1639.32 C 409.928 1636.41 402.59 1643.97 387.738 1645.29 C 380.569 1645.93 370.449 1643.35 363.319 1641.62 C 363.633 1635.04 362.894 1627.26 366.947 1622.89 L 366.654 1622.17 C 363.582 1619.4 363.9 1616.46 365.382 1613.14 C 370.64 1609.58 388.418 1609.63 395.932 1608.97 L 395.433 1606.88 z" fill="rgb(255,237,225)" transform="translate(0,0)"></path>
<path d="M 366.947 1622.89 C 389.537 1623.67 401.024 1613.21 422.601 1614.1 C 453.401 1615.36 495.365 1641.71 526.041 1630.02 C 525.236 1635.05 521.832 1644.02 518.264 1647.56 C 505.215 1646.96 485.512 1643.23 472.855 1639.6 C 456.773 1635.28 436.466 1619.78 419.602 1621.13 C 408.036 1622.06 395.996 1629.85 382.903 1631.71 L 381.785 1635.65 C 397.88 1636.92 414.081 1623.74 424.26 1626.54 C 460.846 1636.59 476.535 1653.82 518.32 1648.53 C 517.422 1652.46 514.325 1661.8 510.817 1664.07 C 483.845 1667.3 452.223 1644.08 425.971 1639.32 C 409.928 1636.41 402.59 1643.97 387.738 1645.29 C 380.569 1645.93 370.449 1643.35 363.319 1641.62 C 363.633 1635.04 362.894 1627.26 366.947 1622.89 z" fill="rgb(255,237,225)" transform="translate(0,0)"></path>
<path d="M 362.979 1630.4 C 368.814 1630.25 376.867 1631.18 382.903 1631.71 L 381.785 1635.65 L 362.979 1630.4 z" fill="rgb(66,54,58)" transform="translate(0,0)"></path>
<path d="M 366.654 1622.17 C 375.062 1617.93 408.227 1608.94 417.173 1609.18 C 457.988 1610.3 484.556 1632.14 527.659 1628.03 L 526.041 1630.02 C 495.365 1641.71 453.401 1615.36 422.601 1614.1 C 401.024 1613.21 389.537 1623.67 366.947 1622.89 L 366.654 1622.17 z" fill="rgb(66,54,58)" transform="translate(0,0)"></path>
<path d="M 535.003 1609.97 C 491.528 1617.72 457.496 1604.63 414.231 1602.43 C 410.708 1602.26 402.591 1601.67 399.64 1600.17 C 417.627 1595.35 480.556 1605.6 500.259 1608.01 C 511.223 1609.35 519.988 1608.54 531.162 1607.43 L 535.003 1609.97 z" fill="rgb(66,54,58)" transform="translate(0,0)"></path>
<path d="M 395.433 1606.88 C 398.458 1606.83 401.468 1606.3 403.771 1607.93 C 400.881 1609.33 399.142 1609.01 395.932 1608.97 L 395.433 1606.88 z" fill="rgb(105,99,107)" transform="translate(0,0)"></path>
<path d="M 1153.81 1134.36 C 1172.59 1131.73 1183.62 1140.72 1199.15 1140.82 C 1232.24 1141.02 1265.46 1145.55 1298.27 1144.91 C 1296.69 1146.85 1291.54 1152.99 1289.98 1154.3 C 1265.16 1175.3 1205.72 1171.76 1174.83 1171.08 C 1142.17 1170.6 1125.74 1178.24 1095.4 1186.74 C 1090.04 1188.23 1078.89 1185.62 1073.94 1186.28 C 1068.17 1187.04 1057.97 1190.76 1051.94 1192.58 C 1054.61 1184.78 1056.78 1179.09 1060.08 1171.55 C 1091.07 1166.93 1118.81 1139.71 1153.81 1134.36 z" fill="rgb(231,182,138)" transform="translate(0,0)"></path>
<path d="M 689.892 670.749 C 706.964 685.225 715.953 732.193 726.291 752.873 C 733.936 767.5 742.139 787.409 753.355 799.47 C 762.817 809.644 779.48 828.652 790.913 835.176 C 799.244 839.929 814.285 841.937 824.103 845.815 C 824.614 854.303 824.367 864.778 824.389 873.419 C 822.601 873.369 817.823 873.154 816.318 872.878 C 788.758 867.819 737.048 829.548 723.793 806.215 C 710.752 783.256 709.749 770.702 692.169 746.966 C 690.015 726.843 690.234 691.785 689.892 670.749 z" fill="rgb(221,158,199)" transform="translate(0,0)"></path>
<path d="M 1369.97 703.812 C 1373.26 705.412 1385.87 713.584 1389.57 715.898 C 1410.29 728.885 1441.69 746.428 1458.25 764.373 C 1472.18 779.473 1486.06 802.797 1498.75 819.274 C 1499.2 837.013 1501.09 854.248 1500.95 872.158 C 1474.09 835.685 1443.04 802.49 1408.44 773.252 C 1398.57 764.973 1386.93 758.163 1376.81 749.613 L 1375.67 748.642 L 1370.02 743.443 C 1369.82 737.378 1369.93 731.283 1369.98 725.212 C 1386 745.184 1402.37 755.985 1421.96 771.749 C 1432.91 780.561 1442.64 791.804 1452.64 800.988 C 1468.81 815.833 1479.52 840.322 1495.2 852.836 C 1485.44 826.394 1445.56 783.545 1423.09 765.657 C 1413.36 757.913 1402.02 750.101 1392.22 741.767 C 1385.08 735.69 1375.98 726.535 1371.52 717.978 C 1370.89 716.758 1370.12 705.902 1369.97 703.812 z" fill="rgb(242,173,115)" transform="translate(0,0)"></path>
<path d="M 494.072 1492.36 C 505.423 1492.25 513.777 1494.96 524.669 1496.07 C 560.768 1499.78 581.448 1506.03 617.076 1496.38 C 610.957 1503.45 604.468 1509.96 597.941 1516.64 C 571.588 1519.97 556.324 1514.8 531.22 1516.81 C 523.109 1517.46 506.761 1523.53 498.481 1526.48 C 476.411 1530.95 447.814 1531.83 425.057 1534.98 C 409.888 1537.07 397.857 1539.56 382.877 1542.71 C 386.392 1533.56 390.108 1522.65 395.102 1514.42 C 413.876 1509.28 425.834 1514.4 441.959 1510.68 C 460.186 1506.48 473.475 1494.99 494.072 1492.36 z" fill="rgb(255,237,225)" transform="translate(0,0)"></path>
<path d="M 689.141 646.799 C 690.992 648.679 699.363 661.545 702.004 664.978 C 714.101 680.71 732.708 702.852 743.216 719.107 C 770.867 761.877 773.77 778.23 823.696 796.795 L 823.762 813.644 C 810.138 809.272 796.527 805.141 784.67 796.809 C 761.776 780.722 751.074 755.738 733.307 735.285 C 736.736 741.69 739.875 748.879 742.997 755.527 C 764.642 795.49 784.793 804.949 823.961 819.536 L 824.266 839.355 C 813.695 836.931 789.499 832.656 783.802 824.026 C 776.323 812.697 761.456 802.453 754.196 792.926 C 742.939 778.156 731.959 753.731 725.394 736.615 C 715.203 710.049 710.795 684.069 689.666 663.173 L 689.141 646.799 z" fill="rgb(221,158,199)" transform="translate(0,0)"></path>
<path d="M 794.216 562.361 C 806.398 560.741 841.787 562.579 854.959 563.537 C 884.673 565.697 906.937 571.774 937.728 567.732 C 932.177 570.681 919.264 578.097 913.602 579.088 C 871.799 586.403 827.016 565.838 786.943 580.362 C 782.075 582.126 773.423 584.981 772.651 590.179 C 775.401 591.436 795.993 583.337 801.737 581.557 C 823.016 577.702 840.593 583.449 860.837 584.475 C 873.806 585.131 892.265 584.29 905.589 584.003 C 899.74 586.96 884.526 596.221 879.073 597.123 C 853.386 601.371 828.751 596.737 806.794 615.476 C 788.727 602.929 770.634 590.096 751.999 578.432 C 764.493 569.605 779.015 564.077 794.216 562.361 z" fill="rgb(221,158,199)" transform="translate(0,0)"></path>
<path d="M 692.428 756.677 C 702.941 765.144 708.487 793.61 716.437 805.024 C 740.708 839.869 783.508 870.735 824.565 880.493 C 824.957 890.511 824.767 902.304 824.826 912.456 C 795.056 911.927 748.921 873.143 729.936 852.004 C 716.458 836.998 713.291 825.422 694.095 808.692 L 693.035 807.781 L 692.428 756.677 z" fill="rgb(221,158,199)" transform="translate(0,0)"></path>
<path d="M 1038.28 1253.36 C 1083.62 1244.3 1093.94 1277.55 1141.48 1269.28 C 1158.94 1266.24 1195.04 1266.75 1212.55 1269.48 C 1210.29 1273.85 1207.37 1278.96 1205.95 1283.57 C 1202.89 1287.42 1204.74 1286.05 1200.16 1287.83 C 1201.56 1287.95 1201.52 1288.13 1202.88 1288.74 C 1203.05 1291.76 1200.52 1294.91 1198.79 1297.67 C 1190.74 1294.84 1176.66 1289.65 1168.51 1289.28 C 1147.52 1288.36 1135.03 1294.68 1112.6 1292.54 C 1092.11 1290.59 1084.46 1282.04 1066 1280.34 C 1063.2 1280.08 1042.65 1283.79 1038.18 1284.53 C 1036.47 1281.94 1037.05 1279.89 1036.9 1276.21 L 1036.5 1274.7 L 1037.9 1273.71 C 1036.12 1269.01 1037.7 1258.81 1038.28 1253.36 z" fill="rgb(242,173,115)" transform="translate(0,0)"></path>
<path d="M 1036.9 1276.21 C 1050.81 1276.17 1055.7 1268.7 1068.39 1268.36 C 1086.81 1267.86 1103.42 1281.3 1121.16 1283.46 C 1158.8 1286.42 1160.08 1275.83 1200.16 1287.83 C 1201.56 1287.95 1201.52 1288.13 1202.88 1288.74 C 1203.05 1291.76 1200.52 1294.91 1198.79 1297.67 C 1190.74 1294.84 1176.66 1289.65 1168.51 1289.28 C 1147.52 1288.36 1135.03 1294.68 1112.6 1292.54 C 1092.11 1290.59 1084.46 1282.04 1066 1280.34 C 1063.2 1280.08 1042.65 1283.79 1038.18 1284.53 C 1036.47 1281.94 1037.05 1279.89 1036.9 1276.21 z" fill="rgb(242,173,115)" transform="translate(0,0)"></path>
<path d="M 1037.9 1273.71 L 1039.27 1273.31 C 1046.84 1271.05 1055.55 1266.08 1060.64 1264.75 C 1079.25 1259.88 1100.66 1274.5 1120.22 1279.23 L 1122.03 1279.68 C 1141.12 1280.93 1158.97 1273.77 1177.81 1276.69 C 1185.04 1277.81 1199.17 1280.67 1205.95 1283.57 C 1202.89 1287.42 1204.74 1286.05 1200.16 1287.83 C 1160.08 1275.83 1158.8 1286.42 1121.16 1283.46 C 1103.42 1281.3 1086.81 1267.86 1068.39 1268.36 C 1055.7 1268.7 1050.81 1276.17 1036.9 1276.21 L 1036.5 1274.7 L 1037.9 1273.71 z" fill="rgb(66,54,58)" transform="translate(0,0)"></path>
<path d="M 1001.72 535.218 L 1003.19 535.375 C 1002.44 537.292 948.836 562.547 943.618 562.921 C 892.607 566.579 840.101 552.7 788.624 557.794 C 774.715 559.17 758.53 568.8 747.023 576.123 L 735.049 566.5 L 723.18 557.837 C 747.207 537.744 782.726 543.357 811.79 543.637 C 827.478 543.789 852.799 540.501 867.5 542.526 C 891.265 548.166 908.178 552.13 933.045 551.752 C 958.987 551.358 978.158 539.289 1001.72 535.218 z" fill="rgb(221,158,199)" transform="translate(0,0)"></path>
<path d="M 592.696 1521.51 L 593.395 1521.41 L 593.726 1522.57 C 589.381 1529.1 581.523 1538.07 576.34 1544.34 C 552.395 1544.15 526.64 1543.45 502.852 1546.7 C 489.379 1548.55 475.397 1553.54 461.219 1554.97 C 448.682 1556.24 434.532 1554.32 422.736 1555.32 C 407.867 1556.57 395.263 1559.19 379.879 1559.87 L 378.4 1559.55 C 377.796 1556.4 379.603 1551.8 380.56 1548.52 C 401.612 1544.44 421.517 1540.91 442.883 1538.47 C 460.549 1536.45 478.945 1534.84 496.449 1532.33 C 509.092 1529.81 521.094 1523.58 533.994 1522.2 C 545.236 1520.99 557.192 1522.35 568.504 1522.83 C 577.234 1523.2 584.052 1522.63 592.696 1521.51 z" fill="rgb(255,237,225)" transform="translate(0,0)"></path>
<path d="M 1036.64 1289.21 C 1044.19 1287.88 1061.33 1284.46 1068.08 1285.56 C 1084.55 1288.23 1094.84 1295.69 1112.77 1297.56 C 1153.32 1301.78 1156.69 1286.22 1196.97 1302.97 C 1195.53 1306.86 1193.59 1313.66 1191.04 1316.31 C 1189.45 1318.85 1189.08 1318.9 1188.84 1321.8 L 1188.96 1321.9 C 1189.82 1324.49 1187.71 1328.58 1186.61 1331.76 C 1176.41 1326.97 1162.46 1320.21 1152.03 1317.18 C 1120.28 1307.96 1083.23 1313.55 1050.56 1314.72 C 1045.69 1314.89 1041.47 1314.61 1038.01 1311.31 C 1037.54 1307.9 1037.33 1309.5 1038.64 1306.34 L 1042.79 1305.35 C 1040.2 1305.28 1040.19 1305.42 1037.83 1304.45 L 1038.03 1302.68 C 1036.76 1297.5 1036.84 1294.48 1036.64 1289.21 z" fill="rgb(231,182,138)" transform="translate(0,0)"></path>
<path d="M 1042.79 1305.35 C 1053.37 1304.21 1062.85 1302.62 1073.63 1302.7 C 1085.96 1302.79 1098.71 1306.85 1110.52 1307.54 C 1139.5 1309.22 1160.91 1312.09 1188.84 1321.8 L 1188.96 1321.9 C 1189.82 1324.49 1187.71 1328.58 1186.61 1331.76 C 1176.41 1326.97 1162.46 1320.21 1152.03 1317.18 C 1120.28 1307.96 1083.23 1313.55 1050.56 1314.72 C 1045.69 1314.89 1041.47 1314.61 1038.01 1311.31 C 1037.54 1307.9 1037.33 1309.5 1038.64 1306.34 L 1042.79 1305.35 z" fill="rgb(231,182,138)" transform="translate(0,0)"></path>
<path d="M 1038.03 1302.68 C 1069.32 1290.66 1111.19 1305.66 1144.72 1305.24 C 1153.13 1305.14 1182.12 1313.34 1191.04 1316.31 C 1189.45 1318.85 1189.08 1318.9 1188.84 1321.8 C 1160.91 1312.09 1139.5 1309.22 1110.52 1307.54 C 1098.71 1306.85 1085.96 1302.79 1073.63 1302.7 C 1062.85 1302.62 1053.37 1304.21 1042.79 1305.35 C 1040.2 1305.28 1040.19 1305.42 1037.83 1304.45 L 1038.03 1302.68 z" fill="rgb(66,54,58)" transform="translate(0,0)"></path>
<path d="M 1044.16 1344.21 C 1042.27 1342.14 1041.53 1337.86 1042.38 1335.22 C 1047.15 1333.98 1060.42 1339.86 1064 1339.01 C 1105.24 1329.22 1142.66 1324.01 1180.66 1351.08 C 1179.59 1356.01 1177.9 1362.39 1177.8 1367.28 L 1175.96 1372.58 C 1175.86 1376.43 1176.22 1379.08 1174.33 1382.39 C 1162.71 1382.79 1133.62 1354.79 1124.15 1354 C 1104.78 1352.38 1066.35 1362.21 1046.98 1355.81 C 1044.56 1352.67 1045.51 1354.43 1044.84 1349.91 L 1051.65 1352.71 C 1057.72 1350.36 1060.15 1352.98 1066.42 1347.97 C 1056.11 1349.86 1054.08 1348.03 1044.16 1344.21 z" fill="rgb(242,173,115)" transform="translate(0,0)"></path>
<path d="M 1087.66 1341.06 C 1119.64 1335.31 1133.86 1346.62 1160.36 1360.96 C 1164.56 1363.23 1172.98 1365.64 1177.8 1367.28 L 1175.96 1372.58 C 1175.86 1376.43 1176.22 1379.08 1174.33 1382.39 C 1162.71 1382.79 1133.62 1354.79 1124.15 1354 C 1104.78 1352.38 1066.35 1362.21 1046.98 1355.81 C 1044.56 1352.67 1045.51 1354.43 1044.84 1349.91 L 1051.65 1352.71 C 1057.72 1350.36 1060.15 1352.98 1066.42 1347.97 C 1068.5 1346.42 1084.1 1342.09 1087.66 1341.06 z" fill="rgb(231,182,138)" transform="translate(0,0)"></path>
<path d="M 1087.66 1341.06 C 1119.64 1335.31 1133.86 1346.62 1160.36 1360.96 C 1164.56 1363.23 1172.98 1365.64 1177.8 1367.28 L 1175.96 1372.58 C 1139.36 1358.73 1130.14 1341.44 1090.6 1345.25 C 1078.67 1348.13 1061.53 1356.12 1051.65 1352.71 C 1057.72 1350.36 1060.15 1352.98 1066.42 1347.97 C 1068.5 1346.42 1084.1 1342.09 1087.66 1341.06 z" fill="rgb(66,54,58)" transform="translate(0,0)"></path>
<path d="M 932.746 412.595 C 939.742 410.185 949.864 404.701 956.332 403.857 C 976.364 401.242 996.429 407.643 1015.43 409.058 C 1056.23 412.097 1077.45 409.82 1117.65 421.85 C 1121.74 422.903 1129.11 425.195 1132.99 424.943 C 1135.3 426.861 1141.15 431.261 1142.44 433.455 L 1144.9 437.647 L 1146.46 441.304 L 1146.27 445.642 C 1135.98 439.089 1123.52 436.029 1111.61 434.114 C 1094.85 432.387 1078.6 430.604 1061.63 430.741 C 1043.96 430.885 1025.02 433.559 1007.48 431.292 C 1001.71 430.547 994.255 426.944 989.488 423.741 C 966.224 408.107 959.121 409.799 932.746 412.595 z" fill="rgb(221,158,199)" transform="translate(0,0)"></path>
<path d="M 1117.65 421.85 C 1121.74 422.903 1129.11 425.195 1132.99 424.943 C 1135.3 426.861 1141.15 431.261 1142.44 433.455 L 1144.9 437.647 L 1146.46 441.304 L 1146.27 445.642 C 1135.98 439.089 1123.52 436.029 1111.61 434.114 C 1121.9 431.268 1129.7 439.202 1138.16 435.104 L 1138.38 433.545 C 1131.54 423.635 1125.31 428.354 1117.65 421.85 z" fill="rgb(211,162,192)" transform="translate(0,0)"></path>
<path d="M 700.634 1058.39 C 707.037 1063.45 713.032 1070.01 719.277 1075.26 C 741.149 1093.68 760.228 1113.72 779.591 1134.71 C 788.229 1144.07 800.757 1152.1 809.075 1161.93 C 816.171 1170.31 821.568 1179.68 828.962 1188.04 L 830.016 1189.22 C 830.115 1195.86 829.957 1201.06 829.574 1207.7 C 822.061 1204.62 801.938 1175.86 793.746 1167.16 C 777.454 1149.85 763.062 1140.94 745.637 1126.44 C 729.373 1112.82 714.42 1097.71 700.976 1081.3 C 701.202 1074.26 700.791 1065.57 700.634 1058.39 z" fill="rgb(221,158,199)" transform="translate(0,0)"></path>
<path d="M 691.268 548.541 C 696.147 552.386 698.545 554.296 701.334 559.846 C 706.437 578.82 734.559 600.966 747.17 616.758 C 758.731 631.234 768.93 647.296 781.836 660.533 C 792.167 669.754 809.223 680.877 820.934 690.111 C 821.058 698.234 820.91 709.249 821.875 717.093 C 821.631 720.444 821.882 726.726 821.908 730.303 C 806.511 711.38 787.137 693.385 773.245 673.593 C 752.457 643.979 734.813 615.247 708.793 589.616 C 701.073 582.012 695.874 571.899 686.878 564.328 C 688.018 558.673 689.549 554.006 691.268 548.541 z" fill="rgb(221,158,199)" transform="translate(0,0)"></path>
<path d="M 554.666 1549.44 C 560.298 1549.03 568.236 1549.08 574.054 1548.94 C 570.356 1554.32 566.467 1560.44 562.049 1565.11 C 538.671 1569.37 497.032 1573.64 473.46 1574.03 C 445.106 1574.49 423.774 1568.42 393.758 1574.73 C 386.497 1576.58 380.616 1577.68 373.213 1578.97 C 374.075 1573.72 374.894 1570.16 376.184 1565.07 C 392.456 1565.44 404.662 1562.39 420.652 1560.91 C 432.988 1559.02 450.698 1561.87 462.345 1559.59 C 494.312 1553.33 522.192 1550.82 554.666 1549.44 z" fill="rgb(255,237,225)" transform="translate(0,0)"></path>
<path d="M 699.045 987.654 C 704.073 992.254 715.131 1010.85 718.311 1017.07 C 739.254 1058.02 775.188 1073.28 808.554 1101.46 C 815.461 1107.3 822.552 1116.55 828.667 1123.85 C 829.002 1131.25 828.837 1139.64 828.851 1147.13 C 824.764 1143.54 819.172 1133.61 814.595 1129.74 C 807.591 1123.82 800.466 1118.05 793.44 1112.13 C 783.955 1104.19 775.327 1094.47 765.851 1086.59 C 742.618 1067.27 721.059 1047.75 699.916 1026.15 C 698.955 1013.47 699.089 1000.39 699.045 987.654 z" fill="rgb(221,158,199)" transform="translate(0,0)"></path>
<path d="M 703.76 560.526 C 710.401 563.005 712.12 564.137 718.061 567.858 C 722.905 579.003 765.257 627.358 774.992 629.927 C 773.317 623.729 732.363 584.428 724.88 573.327 C 747.273 585.785 753.518 595.853 772.093 612.633 C 773.92 614.284 780.417 617.961 783.187 619.779 L 785.084 618.792 C 776.472 611.799 762.813 599.18 754.917 591.241 C 759.984 594.028 771.627 602.381 776.427 606.149 C 787.252 614.645 820.265 632.333 825.689 642.56 L 824.826 645.109 C 826.456 649.495 823.627 665.934 822.9 671.266 C 802.407 653.301 794.889 643.417 778.103 622.208 C 786.569 643.911 802.553 664.397 823.043 675.821 C 822.401 678.522 821.93 680.116 821.798 682.935 C 816.819 681.379 787.031 658.565 782.592 654.009 C 772.347 643.495 763.712 627.843 753.506 616.047 C 739.028 599.312 715.072 579.177 703.76 560.526 z" fill="rgb(221,158,199)" transform="translate(0,0)"></path>
<path d="M 754.917 591.241 C 759.984 594.028 771.627 602.381 776.427 606.149 C 787.252 614.645 820.265 632.333 825.689 642.56 C 813.494 634.207 798.115 625.735 785.084 618.792 C 776.472 611.799 762.813 599.18 754.917 591.241 z" fill="rgb(221,158,199)" transform="translate(0,0)"></path>
<path d="M 785.084 618.792 C 798.115 625.735 813.494 634.207 825.689 642.56 L 824.826 645.109 C 817.461 642.06 789.93 624.652 783.187 619.779 L 785.084 618.792 z" fill="rgb(66,54,58)" transform="translate(0,0)"></path>
<path d="M 688.913 623.615 C 699.645 632.632 744.233 687.038 751.377 698.214 C 775.595 736.098 780.292 752.676 823.133 774.055 L 823.2 790.759 C 801.908 782.874 785.603 773.964 772.557 754.882 C 752.228 725.147 734.112 694.243 710.828 666.605 C 703.221 657.576 696.786 647.34 688.991 638.183 L 688.913 623.615 z" fill="rgb(221,158,199)" transform="translate(0,0)"></path>
<path d="M 697.992 967.479 C 704.627 972.175 727.47 1001.82 736.583 1010.19 C 750.72 1021.8 765.356 1041.47 779.447 1052.05 C 800.674 1067.99 811.211 1077.57 828.791 1097.29 L 829.003 1113.6 C 826.608 1112.03 812.51 1097.04 806.731 1092.46 C 781.701 1072.66 757.786 1060.57 737.289 1035.71 C 722.986 1018.35 713.93 994.793 698.89 981.218 C 698.226 976.661 698.174 972.087 697.992 967.479 z" fill="rgb(221,158,199)" transform="translate(0,0)"></path>
<path d="M 700.076 1034.86 C 703.277 1037.21 717.187 1050.75 721.639 1054.65 C 744.411 1074.59 767.46 1093.78 788.835 1115.23 C 795.016 1121.44 805.138 1127.05 811.119 1133.45 C 817.313 1140.07 821.742 1148.38 828.095 1155.73 L 828.944 1156.69 C 829.35 1164.63 829.623 1172.57 829.762 1180.52 C 824.593 1177.31 815.711 1160.02 808.648 1153.88 C 801.546 1146.71 790.771 1139.71 784.365 1132.19 C 758.803 1102.16 728.232 1078.32 700.384 1051 L 700.076 1034.86 z" fill="rgb(221,158,199)" transform="translate(0,0)"></path>
<path d="M 759.224 1254.74 C 766.232 1261.2 773.267 1267.66 779.763 1274.65 C 788.562 1284.12 833.268 1335.61 833.323 1344.05 C 833.34 1346.79 832.427 1347.58 830.848 1349.65 C 827.881 1349.21 829.227 1349.74 826.74 1347.81 C 821.013 1345.63 820.696 1342.57 816.435 1341.47 C 805.444 1335.6 796.626 1325.23 785.805 1319.29 C 779.714 1316.31 778.225 1315.41 772.795 1311.35 L 773.854 1308.65 C 777.824 1312.07 782.002 1316.27 787.224 1317.24 C 783.893 1307.97 747.33 1278.75 737.409 1270.41 C 742.279 1268.54 745.424 1266.73 750.024 1268.32 C 756.361 1269.76 758.066 1275.26 764.577 1277.89 C 763.394 1270.83 757.659 1266.97 752.241 1261.86 C 755.624 1259.04 756.474 1258.17 759.224 1254.74 z" fill="rgb(242,173,115)" transform="translate(0,0)"></path>
<path d="M 759.224 1254.74 C 766.232 1261.2 773.267 1267.66 779.763 1274.65 C 788.562 1284.12 833.268 1335.61 833.323 1344.05 C 833.34 1346.79 832.427 1347.58 830.848 1349.65 C 827.881 1349.21 829.227 1349.74 826.74 1347.81 C 827.407 1346.32 827.848 1345.92 826.866 1344.79 C 818.317 1335.03 772.182 1280.25 764.577 1277.89 C 763.394 1270.83 757.659 1266.97 752.241 1261.86 C 755.624 1259.04 756.474 1258.17 759.224 1254.74 z" fill="rgb(242,173,115)" transform="translate(0,0)"></path>
<path d="M 750.024 1268.32 C 756.361 1269.76 758.066 1275.26 764.577 1277.89 C 772.182 1280.25 818.317 1335.03 826.866 1344.79 C 827.848 1345.92 827.407 1346.32 826.74 1347.81 C 821.013 1345.63 820.696 1342.57 816.435 1341.47 C 813.253 1336.03 807.076 1330.33 803.164 1325.24 C 787.382 1304.68 766.515 1287.89 750.024 1268.32 z" fill="url(#Gradient2)" transform="translate(0,0)"></path>
<path d="M 688.08 593.769 C 693.369 598.483 715.187 629.974 720.38 637.201 C 730.984 652.878 744.07 667.128 755.305 682.205 C 775.769 709.667 794.182 728.334 822.625 747.743 C 823.057 753.219 822.824 761.723 822.827 767.444 C 775.567 741.69 775.389 719.551 744.141 680.196 C 727.398 659.11 706.404 636.694 689.181 615.131 C 688.343 607.345 688.185 601.634 688.08 593.769 z" fill="rgb(221,158,199)" transform="translate(0,0)"></path>
<path d="M 1368.59 623.657 C 1366.87 619.202 1365.63 603.981 1368.15 600.174 L 1369.13 601.372 C 1399.73 629.673 1432.94 651.635 1463.13 680.513 C 1476.98 693.77 1485.12 705.044 1497.07 719.453 L 1497.03 733.958 C 1473.43 703.288 1461.23 696.011 1432.46 672.249 C 1409.24 653.071 1393.67 641.35 1368.59 623.657 z" fill="rgb(255,237,225)" transform="translate(0,0)"></path>
<path d="M 1368.59 623.657 C 1366.87 619.202 1365.63 603.981 1368.15 600.174 L 1369.13 601.372 C 1367.68 609.455 1379.85 614.985 1368.59 623.657 z" fill="rgb(242,173,115)" transform="translate(0,0)"></path>
<path d="M 1369.93 753.442 C 1379.53 759.942 1395.69 769.003 1404.15 776.6 C 1425.41 795.696 1447.88 816.955 1467.34 837.956 C 1474.08 845.222 1480.38 852.879 1486.44 860.49 C 1491.7 867.08 1494.94 873.205 1500.9 879.376 C 1501.24 887.489 1502.11 896.075 1502.79 904.206 C 1500.47 902.205 1493.46 889.047 1491.24 885.696 C 1468.46 851.267 1434.96 822.655 1405.11 794.25 C 1397.19 786.708 1381.12 778.996 1371.41 771.142 L 1370.07 770.046 L 1369.93 753.442 z" fill="rgb(242,173,115)" transform="translate(0,0)"></path>
<path d="M 700.698 1107.09 C 708.469 1113.69 720.294 1129.79 729.025 1138.58 C 755.165 1164.92 795.495 1193.68 817.197 1222.59 C 813.053 1224.41 812.224 1224.16 807.545 1224.21 C 798.571 1218.05 791.164 1218.14 782.268 1211.74 C 750.117 1188.62 729.941 1148.83 701.15 1123.83 C 701.038 1118.25 700.887 1112.67 700.698 1107.09 z" fill="rgb(221,158,199)" transform="translate(0,0)"></path>
<path d="M 961.409 398.176 C 1000.64 379.086 1012.12 390.744 1055.27 389.784 C 1069.39 389.821 1080.7 390.903 1094.21 395.185 C 1098.63 396.586 1107.94 400.093 1112.02 399.533 L 1112.72 399.93 C 1117.68 403.666 1130.28 413.494 1135.1 415.749 C 1132.71 416.608 1127.2 417.316 1124.78 416.615 C 1101.97 410.012 1081.53 408.144 1058.25 405.384 C 1031.81 404.549 1007.26 402.503 981.174 398.231 C 975.419 397.289 967.283 397.832 961.409 398.176 z" fill="rgb(221,158,199)" transform="translate(0,0)"></path>
<path d="M 558.378 1569.23 L 559.529 1569.97 C 557.588 1574.83 552.841 1581.33 549.758 1585.91 C 538.126 1588.22 525.744 1589.17 513.976 1590.88 C 480.071 1595.78 446.628 1583.38 412.653 1586.11 C 399.714 1587.15 386.186 1591.65 373.408 1594.63 C 371.466 1594.62 371.924 1594.59 370.004 1594.01 C 369.128 1590.22 370.445 1588.04 371.597 1583.9 C 383.939 1582.14 399.092 1577.29 411.142 1576.67 C 426.793 1575.87 444.584 1578.58 460.536 1579.09 C 492.263 1580.11 527.427 1576.45 558.378 1569.23 z" fill="rgb(255,237,225)" transform="translate(0,0)"></path>
<path d="M 695.036 858.542 C 698.26 860.755 716.586 881.587 721.067 886.265 C 734.513 900.307 748.417 913.159 762.282 926.725 C 772.363 937.264 786.231 943.296 797.456 952.034 C 807.18 959.604 815.972 967.579 825.953 975.051 C 826.17 981.454 826.092 987.841 826.071 994.248 C 822.477 991.474 818.069 987.394 814.785 984.127 C 790.642 960.113 760.018 942.947 735.408 919.827 C 720.388 905.716 710.62 885.205 695.116 870.944 L 695.036 858.542 z" fill="rgb(221,158,199)" transform="translate(0,0)"></path>
<path d="M 1377.4 586.857 L 1378.33 587.129 C 1381.07 590.63 1382.27 591.811 1385.73 594.745 L 1387.26 596.027 C 1398.39 605.428 1411.41 608.016 1424.85 619.871 C 1438.68 632.065 1452.96 644.17 1465.24 658.271 C 1475.8 670.386 1485.25 682.958 1496.11 694.803 C 1496.42 698.773 1497.22 704.496 1496.26 708.154 L 1494.06 706.992 C 1469.66 672.507 1426.92 641.893 1393.92 616.278 C 1388.67 612.2 1370.26 597.864 1369.63 592.23 C 1371.23 589.526 1374.45 588.392 1377.4 586.857 z" fill="rgb(255,237,225)" transform="translate(0,0)"></path>
<path d="M 1062.01 1394.56 C 1095.62 1399.72 1104.75 1403.63 1126.36 1428.66 C 1132.22 1434.04 1139.06 1439.8 1145.86 1443.89 C 1165.53 1455.76 1173.67 1457.83 1185.38 1478.62 C 1184.74 1481.14 1184.81 1480.24 1182.5 1482.59 C 1188.17 1486.21 1189.6 1488.93 1193.27 1494.38 C 1163.55 1476.18 1135.52 1448.4 1105.6 1429.43 C 1095.73 1423.16 1082.7 1422.69 1076.38 1409.87 C 1074.9 1408.09 1074.9 1408.24 1074.32 1406.02 L 1075.79 1404.35 C 1067.46 1404.45 1066.9 1400.84 1062.01 1394.56 z" fill="rgb(231,182,138)" transform="translate(0,0)"></path>
<path d="M 1076.38 1409.87 C 1111.07 1423.62 1117.06 1428.72 1145.72 1454.7 C 1151.9 1460.31 1175.12 1477.06 1182.5 1482.59 C 1188.17 1486.21 1189.6 1488.93 1193.27 1494.38 C 1163.55 1476.18 1135.52 1448.4 1105.6 1429.43 C 1095.73 1423.16 1082.7 1422.69 1076.38 1409.87 z" fill="rgb(231,182,138)" transform="translate(0,0)"></path>
<path d="M 1075.79 1404.35 C 1090.41 1407.96 1112.86 1421.22 1124.69 1430.31 C 1133.65 1437.96 1177.63 1476.04 1185.38 1478.62 C 1184.74 1481.14 1184.81 1480.24 1182.5 1482.59 C 1175.12 1477.06 1151.9 1460.31 1145.72 1454.7 C 1117.06 1428.72 1111.07 1423.62 1076.38 1409.87 C 1074.9 1408.09 1074.9 1408.24 1074.32 1406.02 L 1075.79 1404.35 z" fill="url(#Gradient1)" transform="translate(0,0)"></path>
<path d="M 687.571 571.405 C 691.079 573.853 700.722 588.652 705.055 593.53 C 715.453 605.236 731.085 619.263 739.536 632.179 C 756.195 657.636 771.683 679.808 791.214 703.139 C 797.508 710.744 803.943 718.232 810.517 725.596 C 814.121 729.606 821.802 736.096 822.367 741.16 C 783.286 717.888 754.12 671.009 725.848 635.867 C 712.832 619.689 702.657 601.772 688.022 586.246 C 687.349 579.89 687.317 577.702 687.571 571.405 z" fill="rgb(221,158,199)" transform="translate(0,0)"></path>
<path d="M 1369.21 678.512 C 1397.12 697.996 1424.87 708.731 1448.43 735.527 C 1465.95 755.453 1498.12 778.897 1498.23 808.381 C 1492 803.856 1469.59 766.123 1453.4 751.836 C 1426.83 728.385 1395.32 716.682 1370.95 697.035 L 1369.76 696.069 C 1369.33 690.354 1369.33 684.268 1369.21 678.512 z" fill="rgb(242,173,115)" transform="translate(0,0)"></path>
<path d="M 621.602 1299 C 626.869 1298.71 680.727 1314.75 691.843 1316.6 C 722.298 1321.64 752.605 1324.27 782.72 1331.81 C 789.825 1333.59 801.042 1340.77 807.773 1344.85 C 800.396 1343.22 792.678 1341.79 785.244 1340.31 C 762.555 1334.93 747.236 1336.27 724.723 1335.06 C 713.958 1333.81 699.163 1325.59 689.086 1324.39 C 658.38 1320.76 627.518 1311.81 597.418 1307.42 C 605.369 1304.31 613.436 1301.5 621.602 1299 z" fill="rgb(242,173,115)" transform="translate(0,0)"></path>
<path d="M 1371.42 794.678 C 1393.97 810.753 1404.29 825.286 1422.79 844.687 C 1444.67 867.635 1472.91 885.832 1488.16 914.945 C 1494.65 927.33 1504.75 942.658 1505.68 956.604 C 1504.67 956.448 1503.08 955.923 1502.63 955.001 C 1484.29 917.446 1454.75 890.489 1425.51 861.39 C 1408.91 844.864 1392.31 823.311 1372.05 810.403 L 1371.42 794.678 z" fill="rgb(242,173,115)" transform="translate(0,0)"></path>
<path d="M 1370.83 778.418 C 1376.91 781.956 1396.5 793.424 1400.69 797.501 C 1430.25 826.249 1504.62 888.621 1504.02 932.308 C 1497.09 926.072 1485.23 897.106 1474.23 885.926 C 1447.83 859.082 1419.66 835.087 1395.18 806.406 C 1386.34 796.054 1371.02 795.247 1370.83 778.418 z" fill="rgb(242,173,115)" transform="translate(0,0)"></path>
<path d="M 1053.6 1234.37 C 1074.63 1230.96 1095.83 1252.76 1117.48 1255.79 C 1154.9 1261.01 1185.03 1243.03 1221.32 1252.27 C 1219.1 1256.89 1217.2 1262.06 1213.12 1264.55 C 1177.72 1258.63 1149.16 1266.73 1116.45 1265.06 C 1084.68 1263.44 1080.65 1238.68 1038.65 1249.77 L 1041.3 1236.34 L 1053.6 1234.37 z" fill="rgb(231,182,138)" transform="translate(0,0)"></path>
<path d="M 696.661 904.488 C 712.043 917.777 725.608 938.316 742.603 952.05 C 754.312 961.512 765.293 971.937 777.681 981.146 C 787.176 988.205 800.333 996.727 808.363 1004.73 C 814.426 1010.77 822.698 1026.29 827.333 1034.3 C 827.494 1038.34 827.201 1042.03 826.964 1046.05 C 816.448 1029.47 803.179 1020.76 789.106 1007.79 C 773.472 993.382 757.526 978.943 741.943 964.472 C 728.372 951.869 711.186 928.79 697.093 918.091 L 696.661 904.488 z" fill="rgb(221,158,199)" transform="translate(0,0)"></path>
<path d="M 697.93 946.515 C 705.109 950.848 718.374 967.696 724.976 974.572 C 756.865 1007.79 794.512 1034.94 820.986 1073 C 826.719 1081.24 827.778 1075.55 828.144 1087.38 C 822.024 1083.5 814.652 1072.38 808.812 1068.15 C 765.588 1036.89 733.079 998.253 698.031 958.236 L 697.93 946.515 z" fill="rgb(221,158,199)" transform="translate(0,0)"></path>
<path d="M 1368.31 631.344 C 1371.21 633.082 1372.49 634.235 1375.02 636.371 C 1395.62 649.395 1500.01 725.952 1497.73 747.149 L 1496.17 748.74 C 1491.55 748.554 1487.5 744.972 1484.75 741.622 C 1473.79 728.251 1462.48 717.867 1448.69 707.418 C 1439.56 700.498 1430.65 691.354 1421.67 684.097 C 1418.08 680.79 1402.84 668.413 1401.02 666.348 C 1392.25 664.764 1375.95 651.863 1368.34 646.177 L 1368.31 631.344 z" fill="rgb(255,237,225)" transform="translate(0,0)"></path>
<path d="M 1368.31 631.344 C 1371.21 633.082 1372.49 634.235 1375.02 636.371 C 1375.93 643.771 1394.82 661.501 1401.02 666.348 C 1392.25 664.764 1375.95 651.863 1368.34 646.177 L 1368.31 631.344 z" fill="rgb(231,182,138)" transform="translate(0,0)"></path>
<path d="M 697.057 925.42 C 702.919 928.832 732.767 962.166 741.229 970.349 C 769.216 997.414 800.648 1022.42 827.05 1050.39 C 827.383 1057.39 827.666 1064.4 827.897 1071.41 C 824.768 1068.84 820.407 1062.16 817.832 1058.69 C 799.502 1034 774.799 1015.79 752.846 994.449 C 743.35 985.163 733.994 975.734 724.781 966.167 C 716.603 957.545 706.921 945.484 697.288 939.381 L 697.057 925.42 z" fill="rgb(221,158,199)" transform="translate(0,0)"></path>
<path d="M 695.491 878.323 C 704.878 885.337 719.919 911.51 730.175 921.427 C 751.785 942.321 777.894 958.856 800.978 978.352 C 809.976 985.952 816.665 995.303 826.611 1001.27 C 826.742 1007.56 826.745 1013.92 826.792 1020.21 C 822.419 1016.03 815.924 1003.26 809.943 998.316 C 796.78 987.905 782.382 978.754 769.48 968.003 C 748.726 950.709 728.542 934.627 711.922 913.124 C 707.517 907.424 701.174 900.997 696.15 895.532 L 695.491 878.323 z" fill="rgb(221,158,199)" transform="translate(0,0)"></path>
<path d="M 694.361 843.645 C 699.136 846.917 707.739 858.58 712.747 863.263 C 729.885 879.288 747.42 895.172 766.209 909.216 C 774.923 915.631 784.268 921.14 794.101 925.657 C 806.162 931.075 814.554 932.716 824.991 941.148 C 825.229 949.618 825.218 958.093 824.959 966.563 C 818.957 963.472 807.338 953.088 799.837 947.393 C 792.171 941.574 781.496 936.151 773.407 928.976 C 746.642 905.235 719.158 878.343 695.195 851.573 C 694.85 848.294 694.572 845.651 694.361 843.645 z" fill="rgb(221,158,199)" transform="translate(0,0)"></path>
<path d="M 362.683 1642.73 C 368.416 1644.36 371.976 1648.44 380.968 1650.17 C 394.243 1652.74 408.535 1642.85 419.758 1644.09 C 443.278 1646.69 466.77 1661.13 489.883 1667.2 C 494.519 1668.42 508.623 1668 510.475 1669.98 L 508.931 1675.27 C 508.03 1678.4 507.868 1679.92 505.731 1682.41 C 474.89 1685 448.612 1658.37 417.161 1658.87 C 409.053 1658.99 365.601 1655.15 363.104 1650.48 L 364.706 1648.76 C 363.093 1645.95 363.246 1645.98 362.683 1642.73 z" fill="rgb(255,237,225)" transform="translate(0,0)"></path>
<path d="M 693.3 815.618 C 703.326 821.811 720.714 851.979 732.891 863.377 C 753.693 882.846 796.408 918.716 825.031 919.197 L 825.017 934.621 C 818.085 930.213 815.315 928.594 807.334 925.472 C 761.4 907.506 727.297 870.514 694.084 835.644 C 693.77 828.971 693.508 822.295 693.3 815.618 z" fill="rgb(221,158,199)" transform="translate(0,0)"></path>
<path d="M 1394.83 578.458 C 1402.41 586.57 1417.84 591.208 1426.5 597.825 C 1449.82 615.633 1469.23 638.167 1487.08 661.303 C 1489.21 664.054 1493.3 667.811 1494.3 669.933 L 1496.15 686.864 C 1484.99 674.181 1475.11 659.273 1463.34 647.276 C 1445.98 629.572 1428.39 611.606 1405.81 600.658 C 1396.95 596.361 1388.92 591.541 1381.89 584.609 C 1385.55 582.533 1390.9 580.27 1394.83 578.458 z" fill="rgb(255,237,225)" transform="translate(0,0)"></path>
<path d="M 700.645 1089.07 C 706.679 1096.31 719.147 1112.15 726.23 1117.69 C 759.466 1143.68 790.186 1166.38 814.768 1201.66 C 820.19 1209.44 830.549 1212.8 828.325 1223.31 C 823.92 1218.43 818.321 1214.55 813.643 1209.62 C 777.535 1171.59 733.582 1141.62 701.401 1099.89 C 700.848 1099.18 700.685 1090.4 700.645 1089.07 z" fill="rgb(221,158,199)" transform="translate(0,0)"></path>
<path d="M 363.026 1654.41 C 391.6 1664.47 408.717 1660.24 434.726 1666.29 C 461.612 1672.54 472.718 1686.87 504.893 1687.6 L 501.149 1701.13 L 499.885 1702.22 C 472.452 1697.76 449.287 1675.53 420.95 1672.74 C 404.511 1671.12 380.738 1678.34 365.666 1667.64 C 362.531 1665.41 363.092 1658.12 363.026 1654.41 z" fill="rgb(255,237,225)" transform="translate(0,0)"></path>
<path d="M 1368.57 654.755 C 1382.99 666.789 1396.68 674.085 1411.27 684.97 C 1425.54 695.614 1442.13 710.844 1455.12 723.548 C 1468.82 736.946 1489.74 756.258 1496.92 774.097 C 1497.74 776.118 1497.82 781.914 1497.87 784.265 C 1476.23 753.266 1450.53 724.583 1419.06 702.992 C 1400.33 690.142 1386.23 685.309 1368.88 668.742 C 1368.49 663.686 1368.52 659.77 1368.57 654.755 z" fill="rgb(242,173,115)" transform="translate(0,0)"></path>
<path d="M 371.931 1709.6 C 392.575 1714.09 398.865 1710.47 417.402 1712.45 C 434.449 1714.28 457.45 1736.89 470.422 1747.07 C 478.281 1753.23 484.319 1757.35 492.921 1762.93 C 493.069 1768.66 493.124 1772.21 492.606 1778.03 C 481.481 1774.71 475.927 1770.03 467.677 1761.96 C 433.93 1728.95 424.838 1720.12 376.65 1717.06 C 373.044 1714.43 373.951 1714.47 371.931 1709.6 z" fill="rgb(255,237,225)" transform="translate(0,0)"></path>
<path d="M 1100.11 1317.42 C 1141.8 1315.55 1147.97 1318.4 1184.39 1336.78 C 1183.6 1339.95 1183.2 1342.72 1181.4 1345.41 C 1176.1 1343.41 1172.56 1340.54 1167.82 1337.47 C 1157.19 1330.59 1148.85 1328.64 1136.76 1327.73 C 1108.55 1324.79 1089.63 1326.55 1062.2 1331.9 C 1056.14 1333.08 1046.47 1330.44 1040.32 1328.99 L 1038.66 1319.85 C 1055.11 1320.62 1082.76 1318.39 1100.11 1317.42 z" fill="rgb(231,182,138)" transform="translate(0,0)"></path>
<path d="M 1417.19 565.933 C 1446.98 585.532 1470.57 621.603 1494.11 648.659 L 1494.33 661.101 C 1490.55 657.693 1479.21 643.415 1474.99 638.454 C 1453.15 612.726 1430.06 588.196 1397.33 577.239 C 1404.21 573.063 1410.03 569.568 1417.19 565.933 z" fill="rgb(255,237,225)" transform="translate(0,0)"></path>
<path d="M 628.488 1295.24 C 639.398 1292.86 651.61 1290.05 662.574 1288.56 C 696.298 1299.67 697.154 1307.13 738.225 1305.82 C 745.103 1306.45 770.892 1321.16 778.044 1325.08 C 765.514 1323.21 751.26 1318.21 739.413 1316.96 C 701.795 1313.01 664.917 1305.61 628.488 1295.24 z" fill="rgb(242,173,115)" transform="translate(0,0)"></path>
<path d="M 1131.17 1405.28 L 1130.17 1404.34 C 1115.46 1390.75 1094.57 1382.93 1074.77 1379.29 C 1069.93 1378.4 1058.72 1379.74 1054.23 1377.55 C 1062.23 1373.05 1100.79 1373.95 1111.44 1376.44 C 1136.2 1382.24 1147.61 1409.7 1170.3 1416.35 C 1172.1 1416.88 1171.3 1416.57 1173.16 1417.86 C 1174.54 1421.48 1174.51 1419.76 1173.8 1423.16 L 1172.13 1424.21 C 1170.67 1423.67 1169.22 1423.1 1167.78 1422.52 C 1164.9 1419.11 1158.51 1419.28 1154.16 1417.88 C 1144.24 1414.67 1139.39 1411.33 1131.17 1405.28 z" fill="rgb(231,182,138)" transform="translate(0,0)"></path>
<path d="M 367.794 1690.78 C 369.454 1692.09 371.932 1695.07 373.447 1696.75 C 391.595 1699.76 402.093 1696.47 417.779 1697.61 C 434.904 1698.86 459.651 1722.91 474.002 1731.96 C 480.111 1735.81 486.278 1739.89 493.065 1743.7 L 492.907 1756.74 C 470.326 1745.99 447.242 1714.69 421.353 1707.73 C 409.936 1704.65 383.274 1708.94 372.239 1706.01 C 368.858 1701.08 368.556 1696.72 367.794 1690.78 z" fill="rgb(255,237,225)" transform="translate(0,0)"></path>
<path d="M 376.093 1720.03 C 384.852 1720.18 414.088 1727.23 422.176 1731.16 C 445.699 1742.58 461.35 1768.26 483.941 1780.87 C 485.361 1781.66 490.598 1782.17 492.421 1782.36 C 493.659 1789.07 494.649 1796.37 495.694 1803.16 C 487.386 1797.76 479.046 1792.32 471.791 1785.55 C 457.221 1771.96 444.341 1756.03 427.298 1745.35 C 418.876 1739.83 409.889 1735.72 400.943 1731.3 C 393.253 1727.5 381.032 1726.29 376.093 1720.03 z" fill="rgb(255,237,225)" transform="translate(0,0)"></path>
<path d="M 1270.44 970.841 C 1294.77 962.067 1300.74 967.417 1323.24 967.679 C 1355.71 968.058 1364.18 968.641 1394.77 977.15 C 1397.76 975.833 1398.67 976.03 1399.61 973.186 L 1409.81 974.088 C 1411.06 975.412 1413.21 977.495 1414.15 978.919 C 1422.28 978.683 1438.34 988.985 1445.57 993.266 C 1433.17 990.6 1419.87 989.539 1407.39 987.006 C 1390.87 983.653 1374.75 979.11 1358.02 976.676 C 1348.64 975.31 1331.38 976.946 1323.19 975.646 C 1299.01 971.81 1294.54 968.866 1270.44 970.841 z" fill="rgb(231,182,138)" transform="translate(0,0)"></path>
<path d="M 1399.61 973.186 L 1409.81 974.088 C 1411.06 975.412 1413.21 977.495 1414.15 978.919 C 1406.56 979.052 1402.34 978.303 1394.77 977.15 C 1397.76 975.833 1398.67 976.03 1399.61 973.186 z" fill="rgb(66,54,58)" transform="translate(0,0)"></path>
<path d="M 364.586 1672.25 C 373.244 1677.02 387.958 1684.4 397.443 1685.73 C 412.39 1687.82 420.82 1686.77 435.528 1692.5 C 459.463 1701.82 471.967 1715.02 496.453 1723.36 L 493.618 1735.88 C 476.863 1732.43 448.012 1702.57 430.063 1695.82 C 401.799 1685.19 397.758 1699.58 366.471 1687.6 C 365.481 1682.32 365.089 1677.57 364.586 1672.25 z" fill="rgb(255,237,225)" transform="translate(0,0)"></path>
<path d="M 701.803 1131.42 C 714.784 1143.04 732.43 1169.8 746.908 1185.47 C 762.542 1202.38 783.002 1217.17 795.241 1233.58 L 790.715 1236.8 C 784.109 1228.74 769.394 1216.26 761.097 1208.98 C 736.102 1187.06 721.494 1173.99 702.102 1147.1 L 701.803 1131.42 z" fill="rgb(221,158,199)" transform="translate(0,0)"></path>
<path d="M 1060.4 1384.49 C 1119.37 1383.08 1129.6 1420.89 1175.22 1448.96 C 1176.6 1449.81 1176.79 1453.53 1176.91 1455.08 L 1175.58 1455.17 C 1165.41 1450.48 1151.7 1444.77 1143.37 1437.83 C 1129.36 1426.16 1119.03 1408.91 1102.28 1400.44 C 1090.29 1394.37 1076.06 1392.97 1063.19 1389.52 C 1060.5 1388.8 1059.74 1387.71 1058.65 1385.66 L 1060.4 1384.49 z" fill="rgb(231,182,138)" transform="translate(0,0)"></path>
<path d="M 379.615 1729.69 C 385.284 1730.57 393.284 1734.3 398.546 1736.41 C 429.673 1748.88 447.848 1770.62 471.552 1792.55 C 477.772 1798.31 489.369 1805 497.159 1809.54 C 500.183 1815.64 501.02 1818.03 503.036 1824.54 C 492.35 1820.5 463.563 1792.37 453.555 1784.55 C 445.71 1778.41 437.488 1767.65 428.196 1761.32 C 417.322 1753.91 385.583 1739.32 379.615 1729.69 z" fill="rgb(255,237,225)" transform="translate(0,0)"></path>
<path d="M 702.149 1178.29 C 718.893 1191.47 764.005 1234.8 775.638 1250.22 L 768.376 1256.03 C 760.389 1248.82 752.434 1241.58 745.068 1233.74 C 729.738 1217.42 721.528 1204.26 702.606 1192.11 L 702.149 1178.29 z" fill="rgb(221,158,199)" transform="translate(0,0)"></path>
<path d="M 1102.69 1359.4 C 1127.68 1354.86 1134.59 1365.43 1153 1378.27 C 1158.82 1382.34 1167.84 1386.51 1174.32 1389.55 C 1174.35 1392.84 1174.7 1395.81 1173.49 1398.81 C 1170.58 1399.4 1170.58 1398.64 1167.2 1396.98 C 1159.06 1392.51 1149.79 1388.71 1141.76 1384.35 C 1123.12 1374.25 1110.29 1366.66 1089.49 1360.92 L 1102.69 1359.4 z" fill="rgb(231,182,138)" transform="translate(0,0)"></path>
<path d="M 702.087 1155.82 C 707.94 1161.66 713.277 1170.28 720.73 1177.42 C 734.542 1191.04 748.93 1204.17 763.037 1217.47 C 768.39 1222.51 787.081 1237.74 787.511 1244.35 C 786.562 1244.79 781.46 1247.22 780.692 1246.45 C 765.049 1231.1 749.84 1215.07 733.904 1200.02 C 724.059 1190.73 713.373 1178.43 702.024 1171.36 C 701.928 1166.26 702.048 1160.94 702.087 1155.82 z" fill="rgb(221,158,199)" transform="translate(0,0)"></path>
<path d="M 429.112 1782.95 C 413.683 1773.58 392.877 1756.11 384.963 1739.51 C 393.128 1746.82 398.281 1747.2 406.163 1756.51 C 408.5 1763.59 424.571 1778.46 430.409 1781.84 L 432.222 1781.06 C 429.765 1773.54 413.59 1761.27 407.074 1756.04 C 418.403 1758.13 443.447 1779.78 450.435 1788.35 C 457.521 1797.05 503.608 1829.72 505.998 1834.5 C 495.454 1830.85 441.657 1791.89 429.112 1782.95 z" fill="rgb(255,237,225)" transform="translate(0,0)"></path>
<path d="M 1493.9 615.743 L 1493 616.415 C 1485.9 607.693 1476.35 599.506 1468.86 590.955 C 1459.59 580.368 1450.72 569.227 1441.78 558.339 C 1439.16 557.644 1439.75 557.987 1437.47 556.671 C 1439.62 553.885 1449.96 548.821 1453.96 548.089 C 1462.84 570.29 1479.78 585.39 1492.75 604.875 C 1493.44 605.907 1493.51 613.618 1493.9 615.743 z" fill="rgb(255,237,225)" transform="translate(0,0)"></path>
<path d="M 1374.23 905.583 C 1377.31 910.097 1385.11 922.104 1388.46 925.588 C 1402.04 939.721 1429.29 960.165 1438.71 976.578 C 1427.24 971.12 1409.41 959.678 1396.71 952.861 C 1390.06 931.093 1387.18 937.512 1373.86 923.9 C 1373.71 916.963 1373.66 912.483 1374.23 905.583 z" fill="rgb(242,173,115)" transform="translate(0,0)"></path>
<path d="M 702.975 1207.95 L 702.561 1196.25 C 716.411 1207.01 743.844 1239.74 759.224 1254.74 C 756.474 1258.17 755.624 1259.04 752.241 1261.86 C 728.807 1239.73 723.303 1232.38 702.975 1207.95 z" fill="rgb(216,205,193)" transform="translate(0,0)"></path>
<path d="M 1303.5 959.873 C 1323.73 956.549 1352.05 950.747 1372.54 955.451 C 1380.89 957.369 1402.82 968.421 1409.81 974.088 L 1399.61 973.186 C 1386.8 969.415 1373.49 965.268 1360.15 964.221 C 1339.78 962.623 1323.77 964.383 1303.5 959.873 z" fill="rgb(231,182,138)" transform="translate(0,0)"></path>
<path d="M 775.638 1250.22 C 786.539 1262.16 797.331 1273.88 807.615 1286.37 C 816.077 1296.66 824.147 1308.6 832.586 1318.63 L 832.834 1331.92 C 824.129 1316.74 782.116 1269.07 768.376 1256.03 L 775.638 1250.22 z" fill="rgb(242,173,115)" transform="translate(0,0)"></path>
<path d="M 404.353 1676.27 C 436.715 1674.18 457.726 1691.87 486.051 1704.1 C 489.482 1705.58 496.181 1708.17 498.537 1710.65 C 498.295 1713.74 498.01 1713.22 496.095 1716.13 C 492.209 1717.26 491.89 1716.2 487.102 1714.54 C 469.132 1707.39 451.571 1691.08 430.308 1684.92 C 413.843 1680.15 401.702 1682.73 386.77 1678.99 L 385.347 1678.62 C 392.818 1678.12 396.991 1677.61 404.353 1676.27 z" fill="rgb(255,237,225)" transform="translate(0,0)"></path>
<path d="M 1432.53 557.947 C 1436.27 558.017 1443.27 566.137 1444.6 569.231 C 1450.46 582.892 1500.72 625.207 1493.1 637.357 L 1491.16 635.264 C 1476.35 615.015 1442.76 577.113 1422.99 563.215 C 1426.02 561.438 1429.43 559.655 1432.53 557.947 z" fill="rgb(255,237,225)" transform="translate(0,0)"></path>
<path d="M 1469.04 540.213 C 1475.75 552.291 1483.38 564.038 1492.5 574.455 L 1493.21 595.672 C 1488.32 591.397 1461.1 553.89 1456.45 546.988 C 1459.14 543.113 1464.5 541.784 1469.04 540.213 z" fill="rgb(255,237,225)" transform="translate(0,0)"></path>
<path d="M 703.006 1215.7 C 705.144 1217.64 712.372 1226.98 714.581 1229.7 C 720.929 1237.67 727.598 1245.38 734.572 1252.8 C 737.278 1255.7 743.932 1261.74 744.525 1264.88 L 733.138 1267.51 C 723.715 1259.41 711.48 1245.48 703.889 1235.56 C 703.323 1229.03 703.214 1222.27 703.006 1215.7 z" fill="rgb(216,205,193)" transform="translate(0,0)"></path>
<path d="M 785.198 1246.44 C 794.616 1247.51 825.242 1290.8 831.838 1300.11 C 832.261 1304.48 832.706 1306.45 831.916 1310.7 C 822.754 1299.29 813.838 1287.14 804.792 1275.58 C 800.617 1270.24 785.947 1254.54 783.659 1250.04 L 785.198 1246.44 z" fill="rgb(242,173,115)" transform="translate(0,0)"></path>
<path d="M 795.241 1233.58 C 806.082 1246.13 831.944 1271.6 832.306 1286.26 L 831.35 1288.3 C 826.825 1287.31 794.205 1243.52 790.715 1236.8 L 795.241 1233.58 z" fill="rgb(242,173,115)" transform="translate(0,0)"></path>
<path d="M 863.159 604.663 L 863.751 605.305 C 855.917 610.282 851.884 613.009 844.55 619.075 C 836.011 619.013 831.166 620.546 823.134 623.387 C 820.167 624.437 820.183 623.55 817.314 622.003 C 814.301 620.016 814.979 621.014 813.263 618.221 C 818.393 607.517 852.639 605.044 863.159 604.663 z" fill="rgb(221,158,199)" transform="translate(0,0)"></path>
<path d="M 667.64 1286.74 C 683.704 1281.38 694.544 1281.87 709.821 1289.62 C 702.947 1288.96 698.196 1288.26 691.321 1289.09 C 696.864 1290.09 707.729 1292.58 712.974 1291.22 C 716.019 1292.64 727.934 1297.71 729.356 1299.6 C 711.112 1302.07 685.45 1291.38 667.64 1286.74 z" fill="rgb(242,173,115)" transform="translate(0,0)"></path>
<path d="M 791.234 1220.75 C 803.104 1225.24 814.659 1235.36 821.861 1245.69 C 825.436 1250.1 826.868 1252.02 831.37 1255.71 C 831.348 1259.58 831.405 1263.74 831.209 1267.59 C 824.672 1260.75 820.975 1256.26 815.544 1248.43 C 806.993 1239.3 799.331 1230.28 791.234 1220.75 z" fill="rgb(231,182,138)" transform="translate(0,0)"></path>
<path d="M 729.874 1272.28 C 740.232 1278.15 764.546 1300.07 773.854 1308.65 L 772.795 1311.35 C 765.769 1307.41 762.055 1304.86 755.527 1300.07 C 749.321 1294.82 730.468 1280.27 728.539 1274.1 L 729.874 1272.28 z" fill="rgb(231,182,138)" transform="translate(0,0)"></path>
<path d="M 703.745 1243.95 C 710.454 1251.38 719.55 1260.9 725.458 1268.7 C 717.885 1270.12 714.76 1270.16 707.005 1270.3 C 702.357 1266.18 703.721 1250.34 703.745 1243.95 z" fill="rgb(216,205,193)" transform="translate(0,0)"></path>
<path d="M 1052.35 1362.42 C 1066.23 1362.74 1089.92 1364.98 1102.42 1371.12 C 1099.68 1372.23 1097.25 1371.58 1094.23 1371.23 C 1078.21 1365.18 1057.67 1374.9 1050.51 1368.85 C 1048.78 1365.02 1048.83 1366.81 1049.3 1363.34 L 1052.35 1362.42 z" fill="rgb(231,182,138)" transform="translate(0,0)"></path>
<path d="M 1133.11 1410.82 C 1139.23 1413.83 1144.6 1417.85 1151.13 1421.19 C 1156 1423.69 1164.24 1426.38 1167.7 1428.44 C 1170.93 1430.61 1171.65 1431.01 1174.24 1433.82 C 1175 1437.17 1175.16 1437 1174.36 1440.28 C 1168.25 1438.82 1137.09 1416.19 1133.11 1410.82 z" fill="rgb(231,182,138)" transform="translate(0,0)"></path>
<path d="M 1479.12 536.206 C 1484.32 539.535 1494.53 557.829 1491.59 565.323 L 1490.17 564.037 C 1486.77 558.652 1473.58 543.515 1473.64 539.905 C 1476.48 538.813 1476.94 538.347 1479.12 536.206 z" fill="rgb(255,237,225)" transform="translate(0,0)"></path>
<path d="M 1374.07 929.451 C 1381.56 934.705 1389.17 943.053 1393.26 951.347 L 1374.17 945.002 L 1374.07 929.451 z" fill="rgb(242,173,115)" transform="translate(0,0)"></path>
<path d="M 817.197 1222.59 C 819.557 1224.95 822.186 1227.7 824.623 1229.92 C 831.896 1235.94 830.588 1239.05 831.099 1248.09 C 823.419 1238.28 817.328 1232 807.545 1224.21 C 812.224 1224.16 813.053 1224.41 817.197 1222.59 z" fill="rgb(231,182,138)" transform="translate(0,0)"></path>
<path d="M 1142.9 1390.76 C 1151.19 1393.52 1164.16 1400.47 1171.05 1405.89 C 1174.19 1408.36 1173.57 1409 1173.94 1412.64 C 1164.66 1413.62 1149.62 1397.32 1142.9 1390.76 z" fill="rgb(231,182,138)" transform="translate(0,0)"></path>
<path d="M 728.891 1285.52 C 724.755 1282.89 717.344 1279.53 717.337 1274.4 L 719.497 1273.88 C 726.938 1275.81 727.57 1277.61 732.115 1283.76 C 736.472 1287.67 744.33 1294.34 747.74 1298.58 C 741.447 1295.68 736.144 1290.36 729.345 1286.69 L 728.891 1285.52 z" fill="rgb(231,182,138)" transform="translate(0,0)"></path>
<path d="M 1491.24 527.746 C 1492.51 528.1 1491.77 527.741 1492.98 529.511 C 1493.26 533.346 1494.15 538.611 1492.71 541.94 L 1491.47 542.161 L 1488.45 538.745 C 1487.07 537.455 1483 534.745 1481.25 533.518 L 1491.24 527.746 z" fill="rgb(255,237,225)" transform="translate(0,0)"></path>
<path d="M 1484.95 745.807 C 1492.38 748.554 1496.72 752.088 1497.87 759.929 C 1494.52 758.467 1487.72 749.222 1484.95 745.807 z" fill="rgb(231,182,138)" transform="translate(0,0)"></path>
<metadata><recraft-signature>{"signed_by": "recraft", "signature_b64": "Gs+pef2Yp3rIqmVO+fBIXbQxMS4xJgTeNFj5M7KXVK3DlnuzQxxmHbG/yqNiXXzepR9Df1pIHKmb755Vy+/+CQ==", "signing_algo": "Ed25519", "generation_timestamp": 1767931681, "identifier": "b4398a4b-1d04-4782-b37a-3b044e07f1da"}</recraft-signature></metadata></svg>