<?xml version="1.0" encoding="UTF-8"?>
<svg id="Layer_1" xmlns="http://www.w3.org/2000/svg" version="1.1" viewBox="0 0 384 384">
  <!-- Generator: Adobe Illustrator 29.5.1, SVG Export Plug-In . SVG Version: 2.1.0 Build 141)  -->
  <defs>
    <style>
      .st0 {
        fill: #fafdff;
      }

      .st1 {
        fill: #1e41c1;
      }

      .st2 {
        fill: #2bdce0;
      }
    </style>
  </defs>
  <rect class="st0" x="0" y="0" width="384" height="384"/>
  <g>
    <path class="st1" d="M190.4,138.8c.3-1.7,2.4-3.8,4.1-4.4l42.7-10.2c3.9-.6,7.3,1.6,7.6,5.6.7,9.8-.6,20.6,0,30.5-.4,2-1.4,3.8-3.3,4.7-12.8,3.5-25.7,6.4-38.5,9.3v64.5c-.2,25.2-33,35.9-47.4,14.9-13.4-19.5,4-45.1,27.1-40.1,2.8.6,5.2,2,7.8,2.9v-77.8h-.1Z"/>
    <path class="st2" d="M178.5,133.8c.3-1.7,2.4-3.8,4.1-4.4l42.7-10.2c3.9-.6,7.3,1.6,7.6,5.6.7,9.8-.6,20.6,0,30.5-.4,2-1.4,3.8-3.3,4.7-12.8,3.5-25.7,6.4-38.5,9.3v64.5c-.2,25.2-33,35.9-47.4,14.9-13.4-19.5,4-45.1,27.1-40.1,2.8.6,5.2,2,7.8,2.9v-77.8h-.1Z"/>
  </g>
</svg>