<?xml version="1.0" encoding="UTF-8"?>
<svg id="Layer_1" xmlns="http://www.w3.org/2000/svg" version="1.1" viewBox="0 0 384 384">
  <!-- Generator: Adobe Illustrator 29.5.1, SVG Export Plug-In . SVG Version: 2.1.0 Build 141)  -->
  <defs>
    <style>
      .st0 {
        fill: #e6f4fe;
      }

      .st1 {
        fill: #00233a;
      }
    </style>
  </defs>
  <rect class="st0" width="384" height="384"/>
  <g>
    <path class="st0" d="M182.4,116.3v98.6c-3.3-1.1-6.4-2.9-9.9-3.6-29.3-6.4-51.3,26.1-34.3,50.9,18.3,26.6,59.9,13,60-18.9v-81.7c16.3-3.7,32.7-7.4,48.8-11.8,2.4-1.1,3.8-3.5,4.2-6-.7-12.6,1-26.2,0-38.7-.4-5.2-4.7-8-9.6-7.1l-54.2,12.9c-2,.6-4.7,3.4-5.1,5.5h0Z"/>
    <path class="st1" d="M184.5,131.3c.3-1.7,2.4-3.8,4.1-4.4l42.7-10.2c3.9-.6,7.3,1.6,7.6,5.6.7,9.8-.6,20.6,0,30.5-.4,2-1.4,3.8-3.3,4.7-12.8,3.5-25.7,6.4-38.5,9.3v64.5c-.2,25.2-33,35.9-47.4,14.9-13.4-19.5,4-45.1,27.1-40.1,2.8.6,5.2,2,7.8,2.9v-77.8h0Z"/>
  </g>
</svg>