<?xml version="1.0" encoding="UTF-8"?>
<svg id="Layer_1" xmlns="http://www.w3.org/2000/svg" version="1.1" viewBox="0 0 384 384">
  <!-- Generator: Adobe Illustrator 29.5.1, SVG Export Plug-In . SVG Version: 2.1.0 Build 141)  -->
  <defs>
    <style>
      .st0 {
        fill: #e6f4fe;
      }

      .st1 {
        fill: #00233a;
      }
    </style>
  </defs>
  <rect class="st0" width="384" height="384"/>
  <g>
    <path class="st0" d="M179.3,92.9v131.3c-4.4-1.4-8.5-3.8-13.2-4.8-39-8.5-68.3,34.8-45.7,67.7,24.3,35.4,79.8,17.3,79.9-25.2v-108.8c21.7-4.9,43.6-9.8,65-15.7,3.2-1.4,5-4.6,5.6-8-.9-16.8,1.3-34.9,0-51.5-.5-6.9-6.2-10.6-12.8-9.5l-72.1,17.2c-2.7.8-6.3,4.5-6.8,7.3h0Z"/>
    <path class="st1" d="M182,112.8c.4-2.2,3.2-5.1,5.4-5.8l56.9-13.6c5.2-.8,9.7,2.1,10.1,7.5.9,13.1-.8,27.4,0,40.6-.5,2.7-1.9,5.1-4.4,6.3-17,4.6-34.2,8.5-51.3,12.4v85.9c-.2,33.5-43.9,47.8-63.1,19.9-17.8-26,5.3-60.1,36.1-53.4,3.7.8,6.9,2.7,10.4,3.8v-103.6h0Z"/>
  </g>
</svg>