<?xml version="1.0" encoding="UTF-8"?>
<svg id="Layer_1" xmlns="http://www.w3.org/2000/svg" version="1.1" viewBox="0 0 512 512">
  <!-- Generator: Adobe Illustrator 29.5.1, SVG Export Plug-In . SVG Version: 2.1.0 Build 141)  -->
  <defs>
    <style>
      .st0 {
        fill: #fff;
      }

      .st1 {
        fill: #0009f8;
      }

      .st2 {
        fill: #ffc01a;
      }
    </style>
  </defs>
  <rect class="st0" width="512" height="512"/>
  <g>
    <path class="st2" d="M332.5,139.8c-2.7-2.3-6.3-3.3-9.7-2.7l-123.9,20.7c-5.8,1-10,6-10,11.8v95.7c-5.7-2.8-12.2-4.4-19-4.4-23.7,0-43,19.3-43,43s19.3,43,43,43,43-19.3,43-43v-124.1l99.9-16.7v81.5c-5.7-2.8-12.2-4.4-19-4.4-23.7,0-43,19.3-43,43s19.3,43,43,43,43-19.3,43-43v-134.3c0-3.5-1.6-6.9-4.2-9.2h0ZM169.8,322.9c-10.5,0-19-8.5-19-19s8.5-19,19-19,19,8.5,19,19-8.5,19-19,19ZM293.7,302.2c-10.5,0-19-8.5-19-19s8.5-19,19-19,19,8.5,19,19-8.5,19-19,19Z"/>
    <path class="st1" d="M349.7,153.5c-2.7-2.3-6.3-3.3-9.7-2.7l-123.9,20.7c-5.8,1-10,6-10,11.8v95.7c-5.7-2.8-12.2-4.4-19-4.4-23.7,0-43,19.3-43,43s19.3,43,43,43,43-19.3,43-43v-124.1l99.9-16.7v81.5c-5.7-2.8-12.2-4.4-19-4.4-23.7,0-43,19.3-43,43s19.3,43,43,43,43-19.3,43-43v-134.3c0-3.5-1.6-6.9-4.2-9.2h0ZM187.1,336.6c-10.5,0-19-8.5-19-19s8.5-19,19-19,19,8.5,19,19-8.5,19-19,19ZM311,315.9c-10.5,0-19-8.5-19-19s8.5-19,19-19,19,8.5,19,19-8.5,19-19,19Z"/>
  </g>
</svg>